<svg width="1115" height="207" viewBox="0 0 1115 207" fill="none" xmlns="http://www.w3.org/2000/svg">
<path d="M826.133 93.596C826.133 102.743 826.311 111.901 826.093 121.049C825.717 137.326 814.708 150.237 799.88 152.14C782.936 154.314 769.335 145.366 765.051 128.942C764.141 125.461 763.864 121.728 763.815 118.101C763.657 107.772 763.835 97.4431 763.726 87.1143C763.637 78.96 757.652 73.1683 750.61 74.1719C744.447 75.0501 740.609 80.0472 740.579 87.5325C740.53 104.792 740.579 122.053 740.55 139.323C740.55 140.881 740.53 142.48 740.243 143.996C739.254 149.255 735.564 152.255 730.421 152.161C725.702 152.067 721.924 148.732 721.043 143.787C720.865 142.773 720.816 141.707 720.816 140.672C720.806 122.889 720.707 105.106 720.836 87.3129C720.944 72.8756 728.383 61.1981 740.253 56.2742C761.154 47.618 782.777 62.7036 783.242 86.393C783.46 97.6313 783.331 108.88 783.43 120.129C783.48 125.325 785.844 129.193 790.216 131.399C794.489 133.552 798.921 133.134 802.294 129.621C804.173 127.677 805.726 124.687 806.092 121.958C806.745 117.076 806.448 112.048 806.458 107.082C806.488 93.2196 806.359 79.3572 806.527 65.4949C806.626 57.236 812.858 52.4479 819.743 54.9569C823.67 56.3787 826.113 59.9227 826.172 64.9617C826.281 74.5064 826.202 84.0512 826.202 93.596C826.172 93.596 826.143 93.596 826.113 93.596H826.133Z" fill="white"/>
<path d="M954.458 91.9755H1003.11C1003.11 84.1871 1003.11 76.7646 1003.11 69.342C1003.11 67.1257 1002.95 64.8885 1003.07 62.6826C1003.41 56.5251 1007.58 52.3329 1013.14 52.3956C1018.48 52.4584 1022.6 56.6296 1022.87 62.6199C1023.09 67.4498 1022.94 72.2901 1022.94 77.12C1022.94 97.5058 1022.96 117.892 1022.91 138.288C1022.91 140.483 1022.76 142.752 1022.23 144.864C1020.92 150.018 1017.05 152.589 1011.79 152.119C1007.16 151.711 1003.45 148.052 1003.24 142.888C1002.93 134.932 1003.07 126.945 1003.02 118.979C1003.01 116.919 1003.02 114.87 1003.02 112.581H954.408C954.408 121.258 954.428 129.715 954.398 138.173C954.398 139.992 954.379 141.842 954.082 143.63C953.142 149.349 949.393 152.401 943.854 152.14C938.967 151.91 935.159 147.948 934.674 142.616C934.635 142.229 934.645 141.832 934.645 141.445C934.645 115.435 934.595 89.4247 934.684 63.4249C934.704 56.6819 938.967 52.2597 944.774 52.3956C950.382 52.5315 954.26 56.7028 954.379 63.0799C954.517 70.3979 954.438 77.7159 954.448 85.0339C954.448 87.2188 954.448 89.4142 954.448 91.9964L954.458 91.9755Z" fill="white"/>
<path d="M894.593 150.059C887.056 150.059 879.429 150.823 871.991 149.913C853.464 147.655 839.447 131.493 838.725 111.797C838.418 103.235 838.29 94.4426 839.764 86.0792C842.969 67.8261 858.607 54.4968 876.244 54.11C888.738 53.8382 901.241 53.995 913.734 54.0682C919.679 54.0996 923.527 58.0618 923.576 63.8848C923.625 69.7392 919.995 73.8373 913.961 73.9523C903.209 74.1613 892.437 74.245 881.685 73.9314C868.212 73.5446 859.211 81.333 858.311 95.3835C857.915 101.468 858.212 107.688 858.954 113.741C860.17 123.589 868.647 130.458 879.271 130.625C890.894 130.803 902.526 130.761 914.159 130.813C918.304 130.834 921.37 132.831 922.953 136.793C924.456 140.567 924.1 144.571 921.113 147.258C919.214 148.972 916.385 150.206 913.892 150.373C907.482 150.802 901.033 150.519 894.603 150.519C894.603 150.363 894.603 150.216 894.603 150.059H894.593Z" fill="white"/>
<path d="M378.454 126.59C383.717 115.111 388.554 104.541 393.391 93.9722C398.723 82.3366 404.005 70.6696 409.396 59.0654C411.75 53.9951 415.459 51.8624 420.138 52.5419C424.5 53.1796 427.834 56.4623 428.318 61.3444C428.536 63.5607 428.131 66.1429 427.201 68.1292C415.479 93.1777 403.678 118.195 391.729 143.128C387.891 151.126 381.471 154.199 374.31 152.004C369.73 150.593 366.812 147.101 364.754 142.752C354.793 121.728 344.852 100.705 334.921 79.6708C332.883 75.3531 330.687 71.0878 329.036 66.5925C327.492 62.4003 328.185 58.2395 331.469 55.0823C334.624 52.0401 338.591 51.4442 342.162 53.5351C344.447 54.8837 346.504 57.4554 347.691 59.9958C357.375 80.7162 366.822 101.562 376.347 122.366C376.872 123.506 377.465 124.603 378.474 126.6L378.454 126.59Z" fill="white"/>
<path d="M283.732 78.4372C277.787 91.4214 272.247 103.517 266.708 115.623C262.029 125.847 257.42 136.124 252.642 146.296C250.367 151.136 246.578 153.175 242.078 152.485C237.864 151.847 234.421 148.7 233.927 144.1C233.66 141.654 234.115 138.79 235.144 136.573C246.618 111.974 258.28 87.4697 269.873 62.9335C272.772 56.7968 276.877 52.4269 283.83 52.4478C290.765 52.4583 294.909 56.7864 297.807 62.9335C309.321 87.3651 320.885 111.776 332.349 136.239C334.387 140.577 334.753 145.146 331.518 149.119C328.749 152.516 324.822 153.739 321.102 151.91C318.54 150.645 315.959 148.073 314.702 145.397C304.91 124.582 295.443 103.601 285.868 82.6712C285.344 81.5316 284.74 80.4339 283.741 78.4476L283.732 78.4372Z" fill="white"/>
<path d="M663.691 78.5104C659.903 86.7275 656.441 94.2023 653.018 101.698C646.46 116.031 640.04 130.447 633.245 144.655C631.89 147.477 629.486 150.31 626.874 151.743C623.284 153.719 619.357 152.767 616.379 149.422C613.323 146.003 612.7 142.01 614.579 137.838C618.506 129.12 622.611 120.484 626.677 111.828C634.204 95.8123 641.771 79.8172 649.299 63.7908C651.376 59.3582 653.938 55.4065 658.469 53.462C665.689 50.3571 673.375 53.692 677.302 61.9508C689.133 86.7902 700.854 111.682 712.546 136.584C715.346 142.553 713.526 149.004 708.629 151.481C703.07 154.283 697.57 151.952 694.613 145.491C684.988 124.457 675.364 103.423 665.739 82.389C665.264 81.3435 664.681 80.3608 663.691 78.4895V78.5104Z" fill="white"/>
<path d="M470.339 78.3743C464.651 90.7731 459.379 102.252 454.116 113.741C449.21 124.425 444.333 135.131 439.387 145.794C436.519 151.972 430.92 154.231 425.588 151.512C420.524 148.93 418.724 142.856 421.602 136.72C433.274 111.807 445.026 86.9259 456.826 62.0761C459.616 56.2008 463.948 52.3745 470.536 52.4477C477.124 52.5209 481.348 56.483 484.118 62.3374C495.79 86.9677 507.383 111.629 518.976 136.301C520.984 140.577 521.162 144.926 518.303 148.867C515.662 152.506 511.725 153.603 507.986 151.962C505.405 150.833 502.714 148.345 501.478 145.721C491.774 125.168 482.406 104.437 472.93 83.7583C472.238 82.2528 471.496 80.7788 470.339 78.3743Z" fill="white"/>
<path d="M534.021 102.273C534.021 89.341 533.972 76.409 534.051 63.4771C534.09 57.2254 537.711 52.8555 542.924 52.4165C549.126 51.8833 553.636 56.4205 553.666 63.4039C553.745 80.5176 553.755 97.6312 553.785 114.734C553.785 118.916 553.943 123.098 553.735 127.269C553.577 130.405 554.942 130.865 557.504 130.844C571.352 130.74 585.191 130.803 599.039 130.792C603.115 130.792 606.201 132.486 608.061 136.417C609.732 139.94 609.554 143.651 607.071 146.275C605.162 148.303 602.145 150.279 599.593 150.331C580.433 150.666 561.263 150.551 542.103 150.488C536.949 150.467 534.051 147.185 534.031 141.466C533.972 128.409 534.011 115.341 534.011 102.283L534.021 102.273Z" fill="white"/>
<path d="M1075.82 150.519C1066.29 150.519 1056.77 150.54 1047.24 150.519C1040.94 150.498 1036.87 146.735 1036.76 140.964C1036.65 134.88 1040.67 130.834 1047.05 130.823C1066.35 130.782 1085.66 130.782 1104.96 130.823C1111.13 130.834 1115.03 134.796 1115 140.786C1114.97 146.515 1111.1 150.498 1105.15 150.561C1095.37 150.666 1085.6 150.593 1075.82 150.593V150.54V150.519Z" fill="white"/>
<path d="M1076.01 74.0255C1066.48 74.0255 1056.95 74.13 1047.42 73.9941C1040.69 73.9 1036.56 69.7706 1036.76 63.728C1036.93 58.3022 1040.69 54.1414 1046.1 54.0996C1065.9 53.9742 1085.7 53.9846 1105.49 54.0996C1111.11 54.131 1114.94 58.3231 1114.99 63.9266C1115.05 69.6869 1111.31 73.8373 1105.33 73.9627C1095.55 74.1718 1085.78 74.015 1076 74.015L1076.01 74.0255Z" fill="white"/>
<path d="M139.075 103.172C139.105 127.625 120.489 147.331 97.382 147.31C74.5421 147.289 55.9358 127.53 55.9556 103.287C55.9754 78.8762 74.3245 59.3267 97.2732 59.2744C120.519 59.2117 139.056 78.6776 139.085 103.172H139.075ZM97.6886 64.7629C77.6679 64.6793 61.218 81.793 61.0696 102.848C60.9113 124.06 77.3711 141.738 97.3622 141.821C117.205 141.905 133.882 124.478 133.952 103.58C134.021 82.1275 117.878 64.8466 97.6886 64.7525V64.7629Z" fill="white"/>
<path d="M1072.02 112.215C1063.87 112.215 1055.71 112.246 1047.56 112.215C1040.83 112.184 1036.73 108.347 1036.75 102.21C1036.77 96.3244 1040.93 92.4145 1047.4 92.4041C1064.08 92.3727 1080.76 92.4041 1097.44 92.4041C1101.69 92.4041 1104.93 94.3068 1106.59 98.4466C1108.13 102.231 1107.73 106.256 1104.78 108.911C1102.81 110.689 1099.82 111.954 1097.22 112.079C1088.84 112.466 1080.43 112.225 1072.02 112.225V112.215Z" fill="white"/>
<path d="M34.0455 162.552C26.4585 153.488 21.0874 143.651 17.2889 131.973C23.7878 130.823 30.0196 129.004 36.3008 128.785C44.9461 128.482 50.7525 139.762 45.9452 147.216C42.493 152.568 38.1802 157.283 34.0356 162.552H34.0455Z" fill="white"/>
<path d="M70.5162 188.134C59.4474 184.067 50.1096 178.495 41.7017 170.592C46.331 166.399 50.6042 162.249 55.1741 158.486C59.2297 155.14 63.7404 155.475 68.0531 158.099C72.0494 160.524 74.1662 164.445 73.6518 169.201C72.9891 175.38 71.6537 181.485 70.5162 188.134Z" fill="white"/>
<path d="M14.5885 120.819C12.2639 109.089 12.4024 97.7777 14.5885 85.7552C20.7114 88.1493 26.7355 90.031 32.3243 92.8432C36.548 94.9759 38.2197 99.4608 37.7944 104.385C37.3789 109.267 35.1434 113.072 30.6031 114.85C25.4199 116.878 20.1773 118.739 14.5786 120.808L14.5885 120.819Z" fill="white"/>
<path d="M114.317 190.831C102.931 193.215 92.2581 193.204 81.0013 191.03C83.227 184.611 84.8393 178.276 87.5496 172.515C91.4173 164.298 103.297 163.943 107.373 171.982C110.291 177.732 111.933 184.214 114.317 190.831Z" fill="white"/>
<path d="M17.3779 74.8514C21.1071 63.289 26.4387 53.6083 34.1246 44.2936C38.4373 49.9912 43.2249 54.9779 46.4595 60.9159C50.2876 67.9412 44.3625 77.925 36.548 77.7786C30.247 77.6636 23.9856 75.9178 17.3878 74.841L17.3779 74.8514Z" fill="white"/>
<path d="M124.782 187.82C123.605 181.13 122.19 175.035 121.547 168.846C121.073 164.235 123.377 160.482 127.116 158.057C130.945 155.558 135.228 154.816 139.006 157.712C143.873 161.423 148.324 165.741 153.25 170.059C144.773 178.182 135.564 183.722 124.782 187.82Z" fill="white"/>
<path d="M70.3679 18.9628C71.4955 25.6012 72.9397 31.6961 73.4541 37.8641C73.8596 42.7881 71.2383 46.6666 67.0245 48.9038C62.8403 51.1201 58.5473 50.9947 54.7885 47.8584C50.4262 44.2203 46.2717 40.3 41.8007 36.3064C50.0998 28.5598 59.309 22.9668 70.3679 18.9628Z" fill="white"/>
<path d="M177.178 131.639C173.696 143.17 168.216 152.746 160.926 161.988C156.861 156.823 152.578 152.255 149.294 147.007C144.417 139.208 150.263 128.147 159.096 128.545C165.041 128.816 170.937 130.52 177.178 131.639Z" fill="white"/>
<path d="M113.891 15.9728C111.577 22.5172 110.034 28.7793 107.224 34.3305C103.248 42.213 91.368 42.1398 87.4806 34.2469C84.7208 28.6434 83.1381 22.4022 80.8927 16.046C91.9615 13.6728 102.447 13.9133 113.891 15.9728Z" fill="white"/>
<path d="M179.701 85.8074C182.144 97.443 182.075 108.587 179.918 120.568C173.716 118.048 167.682 116.376 162.4 113.26C154.724 108.734 155.466 96.0944 163.498 92.0695C168.573 89.5291 174.082 87.94 179.701 85.8074Z" fill="white"/>
<path d="M152.775 36.3273C148.374 40.3208 144.447 44.0948 140.312 47.5866C136.326 50.9528 131.815 51.0469 127.453 48.5588C123.199 46.1334 120.815 42.0771 121.379 36.9441C122.022 31.1524 123.298 25.4444 124.406 19.13C135.178 22.7472 144.051 28.8107 152.775 36.3273Z" fill="white"/>
<path d="M160.481 44.6594C167.979 53.5246 173.222 63.2366 176.931 74.5691C171.045 75.625 165.387 76.8899 159.66 77.6008C154.882 78.1967 151.282 75.6354 149.017 71.2969C146.742 66.9479 146.742 62.348 149.571 58.3545C152.874 53.6919 156.663 49.4056 160.491 44.6489L160.481 44.6594Z" fill="white"/>
<path d="M165.595 38.9409C167.208 37.0382 168.503 35.5119 169.977 33.766C179.444 44.9103 186.209 57.2986 190.562 71.7464C188.386 72.2691 186.427 72.7291 184.281 73.2413C180.096 60.4453 174.112 49.1233 165.595 38.9409Z" fill="white"/>
<path d="M4.78589 135.277C6.63564 134.817 8.06004 134.43 9.49434 134.106C9.94935 134.002 10.4439 134.085 11.1364 134.085C15.2414 146.599 21.2655 157.879 29.6536 168.062C28.2193 169.818 26.9037 171.449 25.3903 173.31C15.9042 162.092 9.10856 149.746 4.78589 135.267V135.277Z" fill="white"/>
<path d="M69.2996 195.421C68.8445 197.71 68.439 199.707 67.9543 202.143C54.3631 197.532 42.6316 190.288 32.1365 180.116C33.8675 178.506 35.3315 177.136 36.9834 175.61C46.5586 184.433 57.202 191.124 69.2996 195.421Z" fill="white"/>
<path d="M158.661 175.474C160.382 177.073 161.767 178.349 163.557 180C153.062 190.162 141.271 197.219 127.542 201.944C127.126 199.539 126.76 197.459 126.365 195.17C138.413 190.821 149.046 184.391 158.671 175.474H158.661Z" fill="white"/>
<path d="M127.69 4.93311C140.866 9.51208 152.597 16.6419 163.191 26.8766C161.569 28.4134 160.155 29.7725 158.503 31.3406C157.395 30.452 156.326 29.647 155.327 28.7689C147.948 22.3081 139.778 17.2692 130.915 13.4743C127.268 11.9131 126.196 9.06603 127.7 4.93311H127.69Z" fill="white"/>
<path d="M193.193 125.011C186.902 123.547 187.436 123.579 187.743 117.421C188.217 107.949 188.198 98.4152 187.772 88.9332C187.505 83.0788 186.991 83.1101 193.193 81.6256C196.24 96.1152 196.052 110.511 193.193 125V125.011Z" fill="white"/>
<path d="M4.52857 72.0392C9.10842 57.2464 17.9813 41.3454 25.5187 34.3306C26.7849 35.8778 28.0411 37.425 29.5644 39.2859C21.2257 49.3847 14.9841 60.6649 10.8197 73.5028C8.61384 72.9905 6.62561 72.5305 4.51868 72.0392H4.52857Z" fill="white"/>
<path d="M77.0051 2.34047C90.5963 -0.795817 104.128 -0.764455 117.69 2.34047C117.047 9.09393 116.958 8.57122 111.112 8.18441C102.16 7.57806 93.1286 7.5467 84.1766 8.0276C78.3999 8.34122 78.4196 8.93712 77.0051 2.34047Z" fill="white"/>
<path d="M184.498 133.489C186.882 134.054 188.781 134.503 190.849 134.995C186.427 149.307 179.641 161.685 170.056 172.923C168.553 171.146 167.277 169.63 165.753 167.832C174.023 157.681 180.344 146.453 184.498 133.489Z" fill="white"/>
<path d="M116.592 198.243C117.284 200.575 117.828 202.415 118.511 204.704C104.712 207.746 91.2196 207.788 77.6976 204.694C78.0735 198.358 78.5384 198.003 83.969 198.933C93.554 200.575 103.139 200.575 112.724 198.818C113.921 198.599 115.128 198.463 116.592 198.243Z" fill="white"/>
<path d="M36.7559 31.487C35.6579 30.5356 34.827 29.7934 33.9664 29.072C33.2938 28.5075 32.5816 27.9848 31.5924 27.2216C42.2458 16.851 54.0367 9.86753 67.7169 5.07947C68.1422 7.3585 68.5379 9.4389 68.983 11.8329C57.0536 16.1715 46.4003 22.5381 36.7559 31.487Z" fill="white"/>
<path d="M7.29836 123.756C6.12125 124.206 4.32096 124.896 2.52067 125.586C-0.911744 115.205 -0.812826 90.8778 2.65916 81.8871C4.46934 82.5457 6.28941 83.2043 7.29836 83.5702V123.756Z" fill="white"/>
</svg>
