<svg width="1128" height="190" viewBox="0 0 1128 190" fill="none" xmlns="http://www.w3.org/2000/svg">
<g clip-path="url(#clip0_2_155)">
<path d="M1055.79 186.56H1027.83V3.00004C1028.61 2.96004 1029.41 2.90004 1030.22 2.89004C1037.93 2.89004 1045.64 2.94004 1053.35 2.84004C1055.14 2.82004 1055.97 3.33004 1056.65 5.04004C1070.35 39.71 1084.12 74.35 1097.88 109C1098.14 109.66 1098.46 110.31 1099.28 110.85V3.04004H1127.22V186.46C1126.59 186.55 1126.08 186.68 1125.57 186.68C1117.33 186.69 1109.09 186.65 1100.85 186.72C1099.27 186.73 1098.85 185.87 1098.38 184.67C1086.78 155.4 1075.16 126.14 1063.55 96.88C1061.41 91.49 1059.28 86.1 1057.14 80.71C1056.87 80.04 1056.55 79.38 1055.8 78.79V186.56H1055.79Z" fill="white"/>
<path d="M0 186.01V2.46998C0.74 2.39998 1.39 2.29998 2.04 2.29998C18.06 2.29998 34.09 2.26998 50.11 2.32998C56.49 2.35998 62.74 3.32998 68.81 5.33998C80.91 9.35998 89.06 17.4 92.98 29.47C96.59 40.58 97.25 51.99 94.75 63.4C92.17 75.18 86.05 84.5 74.24 89.82C75.18 90.35 75.84 90.74 76.51 91.09C89.83 97.85 97.14 108.82 98.97 123.47C100.41 135.05 99.79 146.51 95.85 157.61C90.14 173.67 78.39 182.46 61.8 185.04C57.35 185.73 52.78 185.93 48.26 185.96C33.14 186.07 18.02 186 2.91 186H0V186.01ZM31.71 160.68C37.27 160.68 42.59 161.09 47.82 160.59C58.66 159.57 64.63 154.3 66.8 144.26C68.47 136.51 68.52 128.68 66.84 120.91C65.23 113.47 61.11 108.03 53.64 105.57C46.51 103.23 39.16 104.14 31.71 103.95V160.68ZM30.94 77.94C35.6 77.94 39.9 78.01 44.2 77.93C53.48 77.75 60.7 72.27 63.23 63.36C65.25 56.23 64.84 49.03 62.91 41.95C60.59 33.45 55.42 29.14 46.65 28.4C42.6 28.06 38.5 28.31 34.44 28.09C32.2 27.97 31.46 28.61 31.45 30.95C31.38 44.66 31.13 58.37 30.96 72.08C30.94 73.94 30.96 75.81 30.96 77.93L30.94 77.94Z" fill="white"/>
<path d="M649.02 185.88V2.45998C649.63 2.39998 650.27 2.27998 650.92 2.27998C666.95 2.29998 682.98 2.06998 699 2.47998C705.12 2.63998 711.36 3.70998 717.27 5.32998C730.63 8.97998 739.68 17.64 743.64 30.95C748.65 47.75 748.78 64.72 743.54 81.5C740.57 91.01 734.72 98.42 725.47 102.79C725.21 102.92 724.98 103.12 724.55 103.42C733.46 131.03 742.37 158.66 751.36 186.55C750.4 186.61 749.67 186.69 748.94 186.69C740.02 186.69 731.1 186.65 722.18 186.74C720.35 186.76 719.59 186.21 719.06 184.42C712.05 160.58 704.93 136.78 697.93 112.94C697.32 110.88 696.56 110.24 694.36 110.48C690.69 110.87 686.97 110.95 683.27 110.87C681.1 110.82 680.47 111.43 680.48 113.63C680.56 136.79 680.53 159.95 680.53 183.12V185.89H649.02V185.88ZM681.29 56.35C681.29 65.17 681.33 73.98 681.25 82.8C681.23 84.56 681.74 85.2 683.54 85.12C688.44 84.92 693.35 85 698.25 84.71C707.12 84.18 712.61 79.81 714.67 71.16C717.02 61.28 716.96 51.28 714.55 41.4C712.81 34.26 708.13 29.78 700.75 28.92C695.15 28.27 689.47 28.39 683.82 28.06C681.86 27.94 681.22 28.53 681.25 30.57C681.36 39.16 681.3 47.75 681.3 56.34L681.29 56.35Z" fill="white"/>
<path d="M524.72 94.86C524.72 79.25 524.69 63.63 524.73 48.02C524.75 40.66 525.7 33.43 528.51 26.56C534.62 11.66 546.13 3.65998 561.67 1.01998C571.95 -0.730024 582.19 -0.330024 592.12 2.97998C608.26 8.36998 617.6 19.91 621.02 36.29C621.95 40.75 622.35 45.41 622.36 49.97C622.47 80.37 622.42 110.77 622.42 141.17C622.42 149.4 621.25 157.41 617.68 164.91C611.03 178.9 599.47 186.21 584.54 188.67C574.73 190.29 564.95 189.96 555.4 186.98C538.05 181.56 528.49 169.41 525.57 151.82C524.91 147.83 524.77 143.72 524.75 139.66C524.66 124.73 524.71 109.79 524.71 94.85L524.72 94.86ZM589.96 94.85C589.96 78.79 590.01 62.73 589.92 46.66C589.9 43.82 589.54 40.93 588.91 38.16C587.73 32.98 584.6 29.26 579.25 28.23C575.96 27.6 572.46 27.38 569.14 27.75C562.07 28.53 558.19 32.25 556.67 39.22C556.11 41.78 555.81 44.44 555.81 47.05C555.75 78.95 555.76 110.85 555.8 142.74C555.8 144.92 555.96 147.12 556.33 149.26C557.33 155.15 559.99 159.78 566.28 161.38C570.53 162.46 574.81 162.49 579.06 161.44C583.75 160.28 587.06 157.38 588.38 152.77C589.28 149.62 589.88 146.28 589.91 143.01C590.06 126.95 589.98 110.89 589.98 94.82L589.96 94.85Z" fill="white"/>
<path d="M288.64 3.04003H320.29V5.59003C320.29 50.33 320.29 95.07 320.29 139.81C320.29 147.09 319.53 154.27 317.04 161.16C312.22 174.53 302.86 183.22 289.24 187.14C277.28 190.58 265.18 190.57 253.24 187.09C236.67 182.26 227.15 170.87 223.95 154.19C223.02 149.34 222.65 144.31 222.64 139.36C222.54 94.85 222.58 50.33 222.58 5.82003C222.58 3.88003 223.567 2.91003 225.54 2.91003C234.16 2.91003 242.78 2.91003 251.39 2.91003C252.21 2.91003 253.03 2.91003 254.07 2.91003C254.13 4.14003 254.22 5.16003 254.22 6.18003C254.22 50.69 254.22 95.21 254.25 139.72C254.25 142.57 254.4 145.47 254.94 148.26C256.71 157.51 262.76 162.05 272.24 161.5C282.24 160.92 287.51 155.78 288.3 145.78C288.5 143.23 288.62 140.66 288.62 138.1C288.64 94.19 288.63 50.28 288.63 6.37003V3.05003L288.64 3.04003Z" fill="white"/>
<path d="M937.15 94.44V189.34C933.33 186.8 929.56 184.69 926.27 182C922.45 178.88 919.64 178.75 915.04 181.54C901.16 189.96 886.03 191.88 870.4 186.81C853.7 181.39 844.31 169.54 841.3 152.52C840.61 148.61 840.4 144.57 840.39 140.59C840.32 109.36 840.33 78.12 840.37 46.89C840.37 39.59 841.6 32.46 844.6 25.76C851.07 11.28 862.69 3.59002 877.99 1.01002C888.27 -0.719977 898.52 -0.359977 908.44 2.99002C925.28 8.67002 934.67 20.82 937.14 38.08C938.19 45.42 937.76 52.97 938.03 60.43C938.08 61.73 937.5 62.11 936.27 62.1C926.9 62.07 917.52 62.05 908.15 62.1C906.5 62.1 906.36 61.26 906.35 59.98C906.31 54.62 906.26 49.27 906.12 43.92C906.08 42.27 905.84 40.61 905.47 39C903.78 31.62 899.12 27.81 891.51 27.56C889.48 27.49 887.4 27.42 885.4 27.71C877.57 28.85 873.26 33.61 872.44 41.93C872.17 44.63 872.02 47.35 872.02 50.06C871.99 80.16 871.98 110.27 872.04 140.37C872.04 143.59 872.28 146.86 872.86 150.03C874.2 157.35 877.75 160.85 885.14 161.85C888.38 162.29 891.82 162.24 895.04 161.69C902.79 160.35 908.21 154.76 908.72 146.92C909.3 138.05 909.08 129.14 909.23 120.24C909.26 118.57 908.12 118.73 907.07 118.73C901.25 118.72 895.43 118.73 889.61 118.73C888.71 118.73 887.82 118.73 886.73 118.73V94.45H937.16L937.15 94.44Z" fill="white"/>
<path d="M349.07 3.05005H433.62V30.23H380.79V77.83H421.39V105.31H380.75V159.36H437.18V186.54H349.06V3.05005H349.07Z" fill="white"/>
<path d="M157.82 159.45H207.31V186.62H126.42V3.03003H157.82V159.45Z" fill="white"/>
<path d="M996.59 186.6H965.28V3.04004H996.59V186.59V186.6Z" fill="white"/>
<path d="M779.58 2.89001C780.51 2.89001 781.32 2.89001 782.13 2.89001C790.75 2.89001 799.37 2.89001 807.98 2.89001C810.047 2.89001 811.08 3.89001 811.08 5.89001C811.08 46.4 811.08 86.92 811.08 127.43C811.08 146.29 811.05 165.15 811.12 184.01C811.12 186.05 810.64 186.75 808.51 186.72C799.67 186.61 790.82 186.63 781.98 186.72C780.04 186.74 779.39 186.24 779.39 184.2C779.44 124.52 779.43 64.85 779.44 5.17001C779.44 4.51001 779.52 3.85001 779.58 2.89001Z" fill="white"/>
</g>
<defs>
<clipPath id="clip0_2_155">
<rect width="1127.21" height="189.7" fill="white"/>
</clipPath>
</defs>
</svg>
