<svg width="1128" height="482" viewBox="0 0 1128 482" fill="none" xmlns="http://www.w3.org/2000/svg">
<path d="M1127.21 251.686C1126.7 254.866 1126.38 258.086 1125.65 261.216C1121.23 280.136 1110.23 293.546 1091.87 300.346C1087.52 301.956 1082.67 303.006 1078.05 303.016C850.589 303.296 623.129 303.456 395.669 303.566C281.969 303.626 168.269 303.636 54.5592 303.526C32.4192 303.506 15.8592 293.676 5.64924 273.786C1.74924 266.196 0.0692357 257.996 0.0592357 249.546C-0.00076431 184.386 -0.0407643 119.226 0.0692357 54.0664C0.0892357 40.9064 4.42924 29.1464 12.8792 18.8664C21.3992 8.49639 32.2892 2.57639 45.4092 0.536386C47.7892 0.166386 50.2192 0.0163863 52.6292 0.0163863C393.199 -0.0036137 733.779 -0.0136137 1074.35 0.0363863C1088.64 0.0363863 1101.16 5.06639 1111.12 15.4364C1120.23 24.9164 1125.73 36.2064 1126.62 49.5164C1126.67 50.3164 1127 51.0964 1127.2 51.8864V251.686H1127.21ZM563.529 290.866C733.969 290.866 904.409 290.866 1074.84 290.806C1078.34 290.806 1081.95 290.386 1085.32 289.456C1102.09 284.796 1114.26 268.616 1114.27 251.226C1114.29 185.686 1114.28 120.146 1114.26 54.6064C1114.26 52.1264 1114.19 49.6164 1113.78 47.1764C1111.31 32.3264 1102.78 22.0164 1089.45 15.5464C1084.86 13.3164 1079.84 12.6864 1074.7 12.6964C734.199 12.7264 393.699 12.7264 53.1992 12.6964C45.7792 12.6964 38.9492 14.1664 32.6192 18.2764C19.8892 26.5464 12.8292 38.0664 12.7992 53.2764C12.6792 118.966 12.7392 184.656 12.7692 250.356C12.7692 252.386 12.9292 254.426 13.2092 256.426C15.9292 275.886 33.1192 290.996 52.6692 290.976C222.959 290.796 393.239 290.876 563.529 290.876V290.866Z" fill="white"/>
<path d="M524.299 481.396C524.069 479.636 523.679 477.876 523.699 476.116C523.699 475.516 524.659 474.566 525.329 474.406C530.079 473.246 533.449 470.306 536.239 466.466C537.219 465.126 537.199 464.006 536.399 462.556C530.449 451.716 524.579 440.826 518.689 429.956C518.369 429.356 517.809 428.726 517.849 428.146C517.889 427.526 518.419 426.556 518.909 426.426C522.529 425.506 524.269 426.356 526.039 429.626C530.699 438.256 535.349 446.886 540.009 455.506C540.419 456.266 540.909 456.996 541.609 458.146C542.299 457.016 542.789 456.306 543.199 455.546C547.939 446.786 552.659 438.026 557.389 429.266C558.819 426.616 562.059 425.316 564.739 426.416C566.289 427.056 565.519 428.106 565.019 429.016C561.969 434.656 558.919 440.296 555.849 445.916C551.899 453.126 548.039 460.386 543.939 467.506C540.419 473.616 535.709 478.486 528.639 480.486C527.639 480.766 526.649 481.086 525.659 481.386H524.299V481.396Z" fill="white"/>
<path d="M44.4693 325.256C50.6493 325.256 56.8492 324.996 63.0092 325.316C71.3392 325.756 76.1193 330.586 77.0493 338.786C77.2192 340.276 76.6392 341.126 75.0992 341.166C74.1192 341.196 73.0892 341.346 72.1692 341.106C71.4892 340.926 70.6093 340.306 70.4093 339.696C68.4793 333.676 66.8192 331.906 60.9392 331.786C49.7692 331.556 38.5793 331.526 27.4093 331.786C21.2193 331.936 18.0092 339.196 21.6292 344.346C22.3092 345.306 23.5693 346.086 24.7192 346.426C26.6493 346.996 28.6992 347.366 30.7092 347.426C38.7092 347.686 46.7093 347.676 54.6992 347.996C58.6792 348.156 62.6592 348.606 66.5892 349.236C75.6992 350.706 77.8893 357.306 77.4793 365.236C77.4093 366.506 77.1992 367.786 76.8892 369.026C75.4292 374.776 71.4393 378.086 64.7593 378.306C53.4492 378.666 42.1292 378.846 30.8092 378.676C27.5392 378.626 24.1193 377.516 21.0893 376.176C16.1193 373.986 14.6292 369.346 14.1092 364.326C14.0892 364.106 14.1093 363.846 14.1993 363.656C15.1693 361.706 16.9893 362.496 18.4293 362.536C19.2593 362.566 20.5892 363.266 20.7992 363.936C22.5892 369.696 24.5293 371.726 30.3593 371.856C40.9993 372.096 51.6692 372.266 62.2992 371.816C69.5392 371.516 71.5792 367.966 70.5292 360.326C70.2292 358.176 68.8092 356.596 66.6392 356.046C64.5392 355.516 62.3892 354.916 60.2492 354.836C52.6493 354.556 45.0293 354.556 37.4293 354.296C33.3893 354.156 29.3193 353.956 25.3193 353.366C16.3693 352.036 12.9393 347.556 13.8793 337.256C14.8293 326.776 21.9993 325.276 29.7693 324.886C34.6693 324.636 39.5893 324.836 44.4993 324.836C44.4993 324.976 44.4993 325.116 44.4993 325.256H44.4693Z" fill="white"/>
<path d="M462.969 411.796C469.149 411.796 475.339 411.576 481.509 411.856C489.639 412.226 494.429 416.916 495.449 424.876C495.639 426.376 495.089 427.216 493.539 427.266C492.559 427.296 491.519 427.476 490.609 427.206C489.889 426.986 488.949 426.296 488.779 425.646C487.469 420.476 484.869 418.266 479.369 418.236C468.189 418.176 457.019 418.186 445.839 418.236C441.549 418.256 439.089 420.626 438.879 424.646C438.599 430.306 440.159 432.766 444.929 433.076C452.749 433.586 460.599 433.636 468.429 434.066C473.909 434.366 479.449 434.556 484.839 435.496C493.899 437.076 496.409 443.186 495.859 451.866C495.789 452.986 495.599 454.116 495.339 455.206C493.989 461.046 489.219 464.746 482.749 464.866C472.419 465.056 462.089 465.366 451.769 465.226C448.089 465.176 444.279 464.416 440.799 463.186C435.289 461.236 433.069 456.566 432.529 451.006C432.489 450.596 432.659 449.816 432.839 449.776C434.479 449.446 436.149 449.056 437.789 449.126C438.329 449.146 439.159 450.406 439.279 451.186C439.889 455.156 442.529 456.996 446.049 457.866C447.639 458.266 449.319 458.456 450.969 458.466C460.259 458.516 469.549 458.496 478.839 458.496C479.369 458.496 479.899 458.526 480.419 458.456C488.779 457.376 489.979 453.436 488.869 446.576C488.189 442.346 484.259 441.586 480.779 441.396C471.369 440.896 461.939 440.766 452.519 440.376C449.139 440.236 445.729 440.016 442.409 439.416C434.119 437.916 431.399 432.976 432.229 423.846C433.229 412.886 440.309 411.856 447.999 411.426C452.969 411.146 457.969 411.376 462.949 411.376C462.949 411.516 462.949 411.656 462.949 411.786L462.969 411.796Z" fill="white"/>
<path d="M807.269 429.986C812.049 426.046 817.529 426.266 822.959 426.336C826.729 426.376 830.509 426.386 834.269 426.556C838.979 426.776 843.149 428.246 845.809 432.326C846.179 432.256 846.399 432.276 846.459 432.186C849.889 427.266 855.059 426.376 860.469 426.366C866.429 426.356 872.399 426.356 878.329 426.816C886.539 427.446 891.729 433.396 891.729 441.616C891.729 448.566 891.729 455.506 891.729 462.456C891.729 465.136 891.449 465.336 888.159 465.326C885.169 465.326 884.899 465.096 884.899 462.366C884.889 455.796 884.719 449.226 884.939 442.666C885.189 435.476 881.269 432.836 876.439 432.526C870.069 432.116 863.599 432.156 857.259 432.836C851.669 433.426 849.579 436.576 849.579 442.186C849.579 448.906 849.579 455.626 849.579 462.346C849.579 465.146 849.339 465.336 846.129 465.336C842.989 465.336 842.759 465.136 842.749 462.266C842.749 455.846 842.539 449.426 842.799 443.016C843.079 436.236 839.009 432.906 834.159 432.586C827.789 432.176 821.319 432.166 814.989 432.866C809.569 433.466 806.969 437.396 806.969 442.916C806.969 449.406 806.969 455.906 806.969 462.396C806.969 465.156 806.719 465.346 803.469 465.336C800.439 465.336 800.149 465.096 800.139 462.446C800.139 451.646 800.119 440.856 800.149 430.056C800.149 428.516 799.519 426.546 802.179 426.326C806.209 426.006 806.639 426.246 807.269 429.986Z" fill="white"/>
<path d="M456.059 351.666C456.059 343.736 456.059 335.816 456.059 327.886C456.059 325.146 456.339 324.856 459.009 324.846C470.789 324.846 482.579 324.756 494.359 324.896C498.499 324.946 502.649 325.476 506.319 327.746C510.269 330.186 511.909 333.956 512.269 338.366C512.409 340.086 512.429 341.866 512.159 343.556C510.959 351.026 506.289 355.406 498.649 355.656C487.869 356.016 477.069 356.006 466.279 356.136C463.359 356.176 463.349 356.146 463.349 359.096C463.349 364.686 463.289 370.266 463.379 375.856C463.409 377.966 462.729 379.026 460.519 378.806C459.919 378.746 459.309 378.756 458.709 378.806C456.749 378.966 456.029 378.066 456.039 376.126C456.099 367.976 456.059 359.816 456.059 351.666ZM481.009 349.306C485.989 349.296 490.959 349.296 495.939 349.296C496.089 349.296 496.239 349.296 496.389 349.296C505.439 348.716 506.309 342.846 504.279 335.846C503.269 332.366 499.529 331.816 496.349 331.766C485.949 331.616 475.539 331.716 465.129 331.666C463.739 331.666 463.309 332.166 463.319 333.516C463.379 338.116 463.399 342.716 463.319 347.306C463.289 348.906 463.849 349.366 465.409 349.346C470.609 349.266 475.819 349.316 481.019 349.316L481.009 349.306Z" fill="white"/>
<path d="M216.939 377.896C214.579 378.196 212.219 378.726 209.859 378.756C202.529 378.866 195.199 378.906 187.879 378.736C185.439 378.676 182.929 378.176 180.609 377.396C177.709 376.426 175.829 374.176 175.449 371.066C175.139 368.536 174.909 365.946 175.099 363.416C175.429 358.916 179.099 355.436 183.929 354.756C185.939 354.476 187.979 354.336 190.009 354.306C194.239 354.236 198.469 354.206 202.699 354.306C207.559 354.416 212.529 353.526 217.159 355.786C218.879 350.236 215.969 346.206 210.409 346.176C203.989 346.146 197.569 346.096 191.149 346.196C187.879 346.246 184.759 346.766 183.959 350.866C183.859 351.356 182.899 351.846 182.249 352.006C181.469 352.206 180.599 352.076 179.769 352.056C177.549 351.996 177.009 351.276 177.479 349.026C178.479 344.186 182.019 340.586 187.449 340.346C196.249 339.956 205.089 339.866 213.879 340.366C220.509 340.736 224.809 346.296 224.909 353.406C225.009 361.026 224.909 368.656 224.949 376.286C224.959 378.156 224.149 378.966 222.349 378.776C220.589 378.596 218.839 378.336 217.089 378.106C217.049 378.026 217.009 377.956 216.969 377.876L216.939 377.896ZM199.329 360.676C195.099 360.676 190.879 360.616 186.649 360.696C183.539 360.756 182.329 362.086 182.289 365.196C182.289 365.796 182.289 366.406 182.289 367.006C182.289 371.166 183.739 372.786 187.939 372.826C195.789 372.916 203.639 372.916 211.479 372.826C215.759 372.776 217.649 370.676 217.599 366.436C217.559 362.706 215.389 360.696 211.319 360.676C207.319 360.656 203.319 360.676 199.319 360.676H199.329Z" fill="white"/>
<path d="M192.509 441.426C193.439 435.566 190.699 432.296 184.389 432.266C178.579 432.246 172.759 432.186 166.949 432.316C165.259 432.356 163.439 432.676 161.949 433.416C160.809 433.976 159.769 435.266 159.269 436.476C158.479 438.396 156.559 439.346 153.769 438.546C151.919 438.016 152.289 436.606 152.579 435.216C153.579 430.566 156.879 427.116 162.029 426.906C171.119 426.536 180.259 426.436 189.349 426.936C195.689 427.286 199.829 432.806 199.939 439.826C200.059 447.516 199.939 455.216 199.979 462.916C199.979 464.646 199.269 465.476 197.539 465.336C195.669 465.186 193.499 466.076 192.579 464.296C189.339 464.666 186.389 465.226 183.429 465.296C176.939 465.446 170.439 465.386 163.949 465.316C162.009 465.296 160.039 465.126 158.139 464.756C153.359 463.816 150.669 460.876 150.139 455.936C149.919 453.846 149.909 451.696 150.159 449.616C150.689 445.226 153.649 442.286 158.299 441.396C160.069 441.056 161.889 440.896 163.679 440.866C168.809 440.796 173.949 440.766 179.079 440.866C183.479 440.946 187.879 441.236 192.499 441.436L192.509 441.426ZM174.609 458.936C178.759 458.936 182.909 458.996 187.049 458.916C190.929 458.846 192.669 456.976 192.669 453.126C192.669 449.036 190.389 446.806 185.879 446.766C178.639 446.706 171.399 446.726 164.159 446.756C158.329 446.776 157.329 447.806 157.349 453.586C157.359 457.536 158.629 458.866 162.609 458.926C166.609 458.976 170.599 458.936 174.599 458.926L174.609 458.936Z" fill="white"/>
<path d="M753.899 446.306C747.479 446.306 741.059 446.346 734.649 446.276C733.069 446.256 732.439 446.766 732.599 448.346C732.689 449.246 732.599 450.156 732.629 451.056C732.829 455.586 735.819 458.806 740.359 458.896C747.759 459.036 755.159 459.006 762.559 458.916C766.189 458.866 767.779 457.176 768.469 453.666C768.619 452.916 769.669 451.886 770.409 451.796C775.769 451.126 776.909 452.726 774.599 457.686C772.559 462.076 769.009 464.626 764.159 464.846C757.319 465.156 750.459 465.286 743.609 465.286C741.009 465.286 738.359 464.916 735.829 464.326C729.849 462.936 726.469 458.926 725.909 451.906C725.559 447.506 725.719 442.996 726.259 438.606C727.029 432.396 732.359 427.146 738.559 426.866C746.749 426.486 754.989 426.406 763.159 426.896C770.539 427.336 775.659 433.606 775.679 441.026C775.689 446.666 776.079 446.326 770.429 446.306C764.919 446.286 759.409 446.306 753.899 446.306ZM768.079 440.226C768.949 436.556 765.139 432.336 760.359 432.286C753.799 432.216 747.239 432.226 740.679 432.286C737.249 432.316 734.199 434.616 733.099 437.756C732.299 440.026 732.529 440.366 734.949 440.366C745.349 440.366 755.759 440.366 766.159 440.366C766.819 440.366 767.469 440.266 768.079 440.226Z" fill="white"/>
<path d="M342.269 428.396C342.269 425.746 342.269 423.216 342.269 420.696C342.269 418.356 342.299 416.016 342.269 413.676C342.249 412.046 343.009 411.316 344.619 411.376C345.149 411.396 345.679 411.426 346.209 411.376C348.349 411.156 349.169 412.056 349.149 414.246C349.069 423.606 349.119 432.966 349.119 442.326C349.119 448.746 349.149 455.156 349.099 461.576C349.089 462.966 349.759 464.776 347.569 465.296C344.839 465.946 342.999 465.266 341.789 463.176C337.859 465.196 333.579 465.406 329.269 465.326C323.779 465.216 318.259 465.306 312.799 464.806C307.029 464.276 301.349 461.096 300.609 453.286C300.149 448.376 300.159 443.346 300.609 438.436C301.179 432.176 306.059 427.246 312.409 426.906C320.749 426.466 329.119 426.726 337.479 426.856C338.959 426.876 340.429 427.786 342.279 428.406L342.269 428.396ZM324.689 459.626C324.689 459.546 324.689 459.466 324.699 459.396C327.419 459.396 330.139 459.476 332.859 459.376C338.649 459.166 342.249 455.426 342.269 449.706C342.269 446.836 342.289 443.966 342.269 441.096C342.229 436.606 340.009 433.206 335.529 432.846C328.569 432.286 321.499 432.126 314.559 432.726C309.089 433.196 306.969 436.566 306.959 442.166C306.959 444.736 306.949 447.296 306.959 449.866C306.979 454.856 309.249 457.986 314.119 458.846C317.579 459.456 321.169 459.376 324.699 459.606L324.689 459.626Z" fill="white"/>
<path d="M351.499 359.766C345.229 359.766 338.969 359.816 332.699 359.736C331.049 359.716 330.299 360.166 330.509 361.886C330.609 362.706 330.509 363.546 330.529 364.376C330.619 369.356 333.699 372.706 338.679 372.816C345.699 372.956 352.719 372.916 359.739 372.836C363.439 372.796 365.349 370.976 366.359 367.306C366.539 366.636 367.449 365.806 368.129 365.696C372.939 364.916 373.959 366.186 372.379 370.806C371.139 374.436 368.529 376.756 364.939 377.816C362.949 378.406 360.799 378.706 358.719 378.756C352.609 378.876 346.489 378.876 340.369 378.756C338.129 378.716 335.849 378.406 333.679 377.876C327.569 376.386 324.389 372.616 323.809 365.446C323.449 361.116 323.609 356.686 324.119 352.376C324.889 345.716 329.219 341.526 335.499 340.526C344.349 339.116 353.409 338.976 362.269 340.716C369.259 342.086 373.109 347.426 373.129 354.576C373.149 360.066 373.509 359.796 368.029 359.776C362.519 359.756 357.009 359.776 351.499 359.776V359.766ZM366.019 353.676C366.219 349.586 362.729 345.906 358.259 345.786C351.549 345.616 344.839 345.616 338.129 345.786C333.859 345.896 330.359 349.876 330.879 353.666H366.019V353.676Z" fill="white"/>
<path d="M109.699 341.956C119.479 338.456 129.529 339.496 139.469 340.406C146.299 341.026 150.479 345.546 151.239 352.736C151.739 357.486 151.599 362.406 150.999 367.156C150.199 373.506 145.549 377.896 139.079 378.246C131.269 378.666 123.419 378.476 115.599 378.296C113.579 378.246 111.589 377.256 109.309 376.616C109.309 381.236 109.309 385.746 109.309 390.256C109.309 393.916 106.999 395.536 103.689 393.996C103.029 393.686 102.539 392.306 102.529 391.406C102.429 385.446 102.479 379.476 102.479 373.516C102.479 363.546 102.459 353.586 102.499 343.616C102.499 342.226 101.819 340.416 103.969 339.846C106.709 339.126 108.679 339.906 109.699 341.956ZM126.989 373.076V372.856C129.939 372.856 132.889 372.936 135.819 372.836C141.429 372.646 144.589 369.366 144.619 363.826C144.639 360.886 144.639 357.946 144.619 355.006C144.589 349.586 141.329 345.966 135.869 345.796C129.839 345.606 123.799 345.596 117.769 345.796C112.169 345.986 109.319 349.216 109.299 354.826C109.289 357.996 109.269 361.156 109.299 364.326C109.349 368.666 111.489 371.656 115.729 372.356C119.419 372.956 123.219 372.856 126.969 373.076H126.989Z" fill="white"/>
<path d="M691.269 341.946C700.959 338.446 710.939 339.576 720.799 340.346C727.729 340.886 732.339 345.866 732.929 353.126C733.299 357.676 733.169 362.346 732.629 366.886C731.859 373.356 727.279 377.866 720.709 378.236C712.899 378.676 705.049 378.476 697.229 378.296C695.209 378.246 693.209 377.256 690.899 376.616V389.986C690.899 394.176 689.909 394.956 685.719 394.186C684.249 393.916 684.049 392.916 684.049 391.676C684.069 387.526 684.049 383.376 684.049 379.216C684.049 367.286 684.039 355.366 684.069 343.436C684.069 342.036 683.479 340.236 685.719 339.816C688.809 339.226 690.239 339.806 691.249 341.946H691.269ZM708.539 373.076C708.539 373.006 708.539 372.926 708.549 372.856C711.419 372.856 714.279 372.916 717.149 372.846C723.019 372.706 726.209 369.446 726.239 363.646C726.249 360.786 726.249 357.916 726.239 355.056C726.209 349.626 722.959 345.986 717.529 345.796C711.499 345.596 705.459 345.596 699.429 345.796C693.809 345.976 690.939 349.176 690.919 354.786C690.909 358.026 690.879 361.266 690.929 364.506C690.999 368.696 693.139 371.656 697.299 372.346C700.989 372.956 704.789 372.866 708.539 373.076Z" fill="white"/>
<path d="M612.089 425.936C617.869 426.366 623.699 426.426 629.399 427.336C634.699 428.186 637.519 432.186 637.449 437.056C637.429 438.766 636.759 439.596 635.019 439.516C634.119 439.476 633.209 439.496 632.299 439.516C630.929 439.536 630.249 438.916 630.119 437.506C629.759 433.506 628.499 432.316 624.379 432.296C616.299 432.246 608.219 432.246 600.139 432.296C596.459 432.316 594.849 433.796 594.809 436.946C594.759 440.726 595.929 442.006 599.929 442.156C605.579 442.376 611.239 442.466 616.899 442.636C620.359 442.746 623.839 442.776 627.289 443.096C634.079 443.706 637.159 447.586 636.969 455.016C636.819 460.546 632.559 464.716 626.639 464.876C618.429 465.106 610.219 465.296 602.009 465.296C599.489 465.296 596.899 464.896 594.479 464.196C589.689 462.806 587.189 458.576 588.049 453.666C588.149 453.066 588.959 452.316 589.569 452.146C590.559 451.886 591.669 452.086 592.719 452.046C594.279 451.996 594.969 452.756 594.799 454.266C594.419 457.776 596.689 459.246 599.789 459.316C608.169 459.516 616.549 459.506 624.929 459.316C628.829 459.226 630.279 457.226 630.129 453.206C630.019 450.366 628.029 448.676 624.539 448.586C616.839 448.406 609.149 448.346 601.449 448.076C598.989 447.986 596.499 447.596 594.109 446.986C590.939 446.176 588.919 444.026 588.289 440.726C586.809 432.976 589.789 427.326 598.049 426.766C602.699 426.456 607.389 426.706 612.059 426.706C612.069 426.446 612.079 426.186 612.089 425.936Z" fill="white"/>
<path d="M940.449 425.946C946.149 426.366 951.909 426.456 957.549 427.296C962.819 428.086 965.819 432.266 965.639 437.196C965.579 438.816 964.909 439.566 963.289 439.506C962.459 439.476 961.629 439.466 960.799 439.506C959.099 439.596 958.349 438.866 958.299 437.116C958.219 433.846 956.999 432.416 953.599 432.346C944.919 432.186 936.219 432.196 927.539 432.336C924.179 432.386 922.949 434.116 923.009 437.736C923.049 440.656 924.489 441.996 928.089 442.126C934.729 442.366 941.369 442.446 948.009 442.636C950.489 442.706 952.979 442.816 955.459 443.056C962.289 443.716 965.339 447.496 965.159 454.956C965.029 460.546 960.909 464.646 954.879 464.846C946.519 465.116 938.149 465.276 929.779 465.266C927.339 465.266 924.829 464.796 922.489 464.076C917.869 462.656 915.379 458.366 916.229 453.626C916.339 453.026 917.149 452.266 917.759 452.126C918.839 451.876 920.009 452.046 921.139 452.046C922.479 452.046 923.109 452.756 922.969 454.046C922.579 457.846 925.159 459.306 928.469 459.356C936.549 459.476 944.639 459.486 952.719 459.356C957.209 459.286 959.289 456.326 958.219 452.016C957.729 450.036 955.659 448.656 952.909 448.596C945.289 448.416 937.659 448.306 930.039 448.106C928.089 448.056 926.109 447.906 924.199 447.536C917.209 446.176 915.439 441.426 916.349 434.806C916.899 430.826 919.439 428.296 923.289 427.296C925.389 426.756 927.589 426.476 929.759 426.386C933.299 426.236 936.859 426.346 940.409 426.346C940.409 426.216 940.429 426.096 940.439 425.966L940.449 425.946Z" fill="white"/>
<path d="M893.499 378.356C888.449 378.356 883.379 378.636 878.359 378.286C872.509 377.876 869.029 373.716 869.009 368.046C869.009 366.326 869.639 365.496 871.409 365.596C872.239 365.646 873.069 365.646 873.899 365.596C875.629 365.496 876.319 366.266 876.349 368.006C876.409 371.386 877.579 372.746 880.959 372.796C889.419 372.926 897.879 372.946 906.329 372.796C910.179 372.726 911.689 370.906 911.639 367.276C911.599 364.216 909.479 362.166 906.029 362.066C898.329 361.856 890.639 361.766 882.939 361.566C880.989 361.516 879.019 361.366 877.099 361.016C872.319 360.136 869.939 357.516 869.109 352.466C868.409 348.186 870.379 343.596 874.349 341.846C876.969 340.686 879.969 340.006 882.829 339.896C889.919 339.626 897.029 339.646 904.119 339.896C907.069 339.996 910.119 340.646 912.909 341.636C916.929 343.076 918.999 346.856 918.389 351.016C918.279 351.746 917.249 352.576 916.449 352.906C915.679 353.226 914.669 352.976 913.759 352.976C912.379 352.976 911.549 352.326 911.659 350.926C911.959 347.116 908.989 345.846 906.139 345.796C897.759 345.666 889.369 345.646 880.989 345.796C876.889 345.866 874.499 350.296 876.799 353.666C877.559 354.776 879.569 355.506 881.049 355.566C888.889 355.896 896.739 355.926 904.589 356.126C906.389 356.176 908.219 356.346 909.959 356.746C916.239 358.196 918.909 362.156 918.469 369.156C918.159 374.116 914.359 377.906 908.639 378.286C903.609 378.616 898.549 378.356 893.499 378.356Z" fill="white"/>
<path d="M635.579 339.576C639.359 339.816 643.619 339.736 647.759 340.436C655.009 341.666 659.069 346.526 659.549 354.366C659.789 358.336 659.669 362.376 659.199 366.316C658.419 372.836 654.539 377.486 647.919 378.026C639.099 378.736 630.119 378.816 621.329 377.976C613.909 377.276 610.219 372.286 609.799 364.546C609.579 360.426 609.699 356.236 610.179 352.146C610.969 345.426 615.959 340.816 622.709 340.256C626.839 339.916 630.989 339.816 635.579 339.586V339.576ZM634.589 372.856C637.679 372.856 640.779 372.946 643.869 372.836C649.509 372.626 652.759 369.206 652.789 363.586C652.799 360.876 652.789 358.156 652.789 355.446C652.769 349.776 649.299 345.956 643.659 345.786C637.629 345.616 631.579 345.606 625.549 345.786C619.819 345.966 617.039 349.026 617.019 354.716C617.009 357.806 616.999 360.896 617.019 363.996C617.059 369.386 620.299 372.696 625.749 372.846C628.689 372.926 631.629 372.856 634.579 372.846L634.589 372.856Z" fill="white"/>
<path d="M1004 378.986C1000.06 378.786 996.279 378.756 992.539 378.376C984.139 377.526 979.759 373.086 979.259 364.606C979.009 360.416 979.169 356.156 979.629 351.986C980.359 345.426 984.859 340.736 991.499 340.366C999.749 339.906 1008.07 339.866 1016.31 340.366C1023.67 340.816 1028.6 346.796 1028.61 354.146C1028.61 358.436 1028.82 362.776 1028.22 366.996C1027.26 373.696 1022.74 377.676 1016.01 378.316C1011.97 378.706 1007.89 378.776 1004 378.976V378.986ZM1003.87 373.086C1003.87 373.016 1003.87 372.936 1003.88 372.866C1006.82 372.866 1009.77 372.916 1012.71 372.856C1018.59 372.726 1021.77 369.476 1021.79 363.656C1021.8 360.786 1021.8 357.916 1021.79 355.056C1021.76 349.546 1018.6 345.986 1013.09 345.806C1006.98 345.596 1000.86 345.616 994.749 345.806C989.069 345.976 986.059 349.296 986.029 354.926C986.019 358.096 985.989 361.266 986.039 364.436C986.099 368.596 988.289 371.666 992.389 372.346C996.149 372.966 1000.04 372.876 1003.86 373.106L1003.87 373.086Z" fill="white"/>
<path d="M274.659 372.856C277.759 372.856 280.849 372.896 283.949 372.856C288.979 372.786 291.229 370.866 292.479 365.936C292.649 365.276 293.579 364.446 294.249 364.336C298.849 363.586 299.709 364.546 298.739 369.056C297.699 373.926 293.349 377.986 287.669 378.246C279.249 378.636 270.769 378.836 262.369 378.316C254.359 377.826 250.419 373.496 249.889 365.496C249.589 361.006 249.759 356.436 250.229 351.956C250.899 345.476 255.459 340.676 261.869 340.346C270.359 339.916 278.899 339.896 287.389 340.356C294.249 340.726 298.369 345.306 299.169 352.006C299.339 353.396 298.819 354.226 297.389 354.306C296.339 354.366 295.219 354.526 294.239 354.246C293.539 354.046 292.639 353.296 292.479 352.636C291.309 347.896 288.959 345.806 284.129 345.746C277.709 345.676 271.289 345.666 264.869 345.746C259.869 345.816 256.699 349.096 256.649 354.066C256.609 357.616 256.599 361.166 256.649 364.716C256.709 369.196 260.169 372.716 264.689 372.836C268.009 372.926 271.339 372.856 274.659 372.856Z" fill="white"/>
<path d="M233.079 430.146C236.889 426.376 241.559 426.246 246.289 426.336C251.259 426.436 256.269 426.266 261.199 426.776C269.899 427.666 275.039 433.466 275.199 442.196C275.319 449.066 275.199 455.936 275.239 462.806C275.249 464.656 274.479 465.466 272.659 465.336C272.209 465.306 271.749 465.336 271.299 465.336C268.109 465.336 267.939 465.166 267.929 462.026C267.929 455.156 267.949 448.286 267.929 441.416C267.909 436.086 264.399 432.406 259.049 432.296C253.389 432.186 247.719 432.186 242.059 432.296C236.619 432.396 232.639 436.606 232.619 442.086C232.599 448.806 232.619 455.526 232.619 462.246C232.619 465.176 232.399 465.346 229.039 465.336C226.009 465.336 225.789 465.126 225.789 462.146C225.789 451.346 225.789 440.556 225.789 429.756C225.789 428.066 225.539 426.356 228.139 426.306C232.169 426.226 232.309 426.246 232.699 429.406C232.719 429.546 232.839 429.666 233.099 430.146H233.079Z" fill="white"/>
<path d="M664.129 433.406C661.089 433 659.579 431.636 659.599 429.316C659.613 427.536 661.126 426.47 664.139 426.116C664.139 424.546 664.159 422.926 664.139 421.306C664.119 419.806 664.809 419.056 666.329 419.086C667.089 419.096 667.839 419.116 668.599 419.086C670.369 418.996 671.049 419.876 670.989 421.576C670.939 423.066 670.979 424.556 670.979 426.346H674.139C681.539 426.346 688.949 426.346 696.349 426.346C699.379 426.346 699.549 426.536 699.539 429.826C699.539 432.936 699.329 433.176 696.439 433.176C688.729 433.176 681.029 433.236 673.319 433.136C671.389 433.106 670.899 433.746 670.929 435.586C671.039 440.946 670.939 446.306 670.979 451.666C671.009 456.386 673.569 458.936 678.269 458.956C682.349 458.976 686.429 459.006 690.509 458.936C693.179 458.886 695.319 457.916 696.359 455.156C696.559 454.626 697.379 454.236 697.999 453.976C698.449 453.786 699.039 453.926 699.569 453.926C703.879 453.926 704.549 455.006 702.429 458.816C700.449 462.376 697.209 464.526 693.309 464.766C687.179 465.136 680.999 465.086 674.859 464.796C669.709 464.556 665.029 459.736 664.629 454.276C664.199 448.416 664.269 442.526 664.139 436.656C664.119 435.616 664.139 434.576 664.139 433.406H664.129Z" fill="white"/>
<path d="M1061.29 343.306C1066.13 339.106 1072.05 339.776 1077.83 339.806C1081.52 339.826 1085.24 339.766 1088.89 340.206C1097.92 341.306 1102.83 346.906 1102.96 356.016C1103.06 362.726 1102.94 369.446 1103 376.166C1103.02 378.136 1102.2 378.816 1100.28 378.816C1096.18 378.806 1096.14 378.816 1096.14 374.676C1096.14 368.336 1096.14 361.996 1096.14 355.656C1096.13 349.786 1092.55 346.176 1086.73 346.166C1081.22 346.156 1075.71 346.156 1070.19 346.166C1064.42 346.186 1060.84 349.726 1060.82 355.446C1060.8 362.016 1060.82 368.576 1060.82 375.146C1060.82 378.706 1060.74 378.796 1057.34 378.796C1054.11 378.796 1053.98 378.666 1053.98 375.256C1053.98 364.616 1053.98 353.976 1053.98 343.336C1053.98 341.726 1053.55 339.746 1056.2 339.806C1059.3 339.866 1060.85 339.046 1060.9 342.746C1060.9 342.866 1061.05 342.976 1061.29 343.306Z" fill="white"/>
<path d="M800.199 375.726C795.669 378.906 790.689 378.926 785.689 378.796C780.869 378.676 776.029 378.746 771.229 378.346C763.059 377.666 758.139 372.266 757.989 363.946C757.859 356.706 757.989 349.456 757.949 342.216C757.949 340.476 758.689 339.696 760.409 339.806C760.859 339.836 761.319 339.806 761.769 339.806C764.499 339.826 764.789 340.086 764.799 342.766C764.809 349.636 764.799 356.496 764.799 363.366C764.799 369.216 768.319 372.796 774.219 372.856C779.879 372.916 785.549 372.916 791.209 372.856C797.109 372.786 800.569 369.216 800.569 363.336C800.569 356.466 800.569 349.606 800.569 342.736C800.569 339.996 800.829 339.796 804.079 339.806C807.099 339.806 807.399 340.046 807.399 342.706C807.399 353.576 807.409 364.436 807.399 375.306C807.399 376.726 807.899 378.486 805.609 378.806C801.979 379.316 800.989 378.836 800.199 375.746V375.726Z" fill="white"/>
<path d="M544.429 342.816C548.419 339.796 552.869 339.706 557.349 339.796C562.699 339.906 568.069 339.856 573.389 340.266C580.909 340.856 585.889 346.376 586.179 353.916C586.229 355.286 585.659 356.086 584.229 356.116C583.319 356.136 582.419 356.116 581.509 356.116C580.149 356.136 579.489 355.516 579.329 354.106C578.689 348.696 575.469 345.786 569.979 345.716C564.469 345.646 558.949 345.636 553.439 345.716C547.349 345.806 544.049 349.176 544.039 355.196C544.019 361.916 544.039 368.626 544.039 375.346C544.039 378.626 543.889 378.766 540.559 378.766C537.329 378.766 537.199 378.636 537.199 375.226C537.199 364.586 537.189 353.946 537.209 343.306C537.209 341.886 536.689 340.116 538.969 339.776C542.529 339.236 543.599 339.756 544.419 342.786L544.429 342.816Z" fill="white"/>
<path d="M835.479 351.826C835.479 343.896 835.479 335.976 835.479 328.046C835.479 325.006 835.669 324.836 838.949 324.846C842.079 324.846 842.309 325.056 842.309 327.926C842.309 343.856 842.309 359.776 842.309 375.706C842.309 378.626 842.089 378.806 838.729 378.796C835.699 378.796 835.479 378.586 835.479 375.606C835.479 367.676 835.479 359.756 835.479 351.826Z" fill="white"/>
<path d="M945.639 359.186C945.639 353.676 945.629 348.166 945.639 342.656C945.639 340.026 945.939 339.806 948.999 339.796C952.159 339.796 952.459 340.006 952.469 342.546C952.479 353.716 952.479 364.886 952.469 376.056C952.469 378.636 952.179 378.816 948.769 378.796C945.959 378.786 945.649 378.516 945.639 375.936C945.629 370.346 945.639 364.766 945.639 359.176V359.186Z" fill="white"/>
<path d="M948.999 331.676C945.769 331.676 945.629 331.536 945.639 328.146C945.639 324.976 945.799 324.836 949.229 324.846C952.299 324.846 952.479 325.046 952.479 328.266C952.479 331.536 952.329 331.686 948.999 331.686V331.676Z" fill="white"/>
<path d="M170.699 144.176C175.829 145.686 180.769 147.026 185.629 148.596C194.269 151.386 202.749 154.626 209.969 160.326C220.569 168.696 226.689 179.546 227.679 193.136C229.489 217.986 217.599 234.656 196.259 245.586C186.079 250.806 175.119 253.626 163.779 254.626C154.779 255.416 145.719 255.896 136.679 255.946C105.409 256.106 74.1293 256.006 42.8493 256.006C40.0793 256.006 38.9693 254.496 40.0293 251.886C40.2293 251.386 41.2993 251.046 42.0093 250.966C46.1193 250.466 50.2993 250.366 54.3393 249.576C62.4193 248.006 66.8293 243.006 67.5293 234.846C67.9793 229.596 68.3693 224.316 68.3793 219.056C68.4393 172.466 68.4393 125.886 68.3693 79.2964C68.3693 74.4064 67.9893 69.4964 67.4693 64.6364C66.6493 57.1164 61.3693 52.0364 53.2193 50.8364C49.4993 50.2964 45.7293 50.0164 41.9693 49.9164C39.8993 49.8564 39.9093 48.7964 39.8893 47.3064C39.8693 45.7664 39.9793 44.7764 42.0193 44.7764C77.5293 44.8364 113.029 44.6464 148.539 44.9464C159.819 45.0364 171.209 45.7864 182.039 49.3864C201.859 55.9664 214.209 69.6764 217.949 90.1764C221.329 108.706 212.639 124.956 195.809 134.056C188.739 137.876 181.249 140.626 173.519 142.766C172.799 142.966 172.079 143.186 171.369 143.446C171.189 143.516 171.069 143.756 170.709 144.156L170.699 144.176ZM175.529 197.256C175.699 192.376 174.399 185.446 171.739 178.806C167.489 168.216 160.709 159.966 149.699 155.866C139.199 151.956 128.159 151.816 117.159 151.496C115.489 151.446 115.209 152.436 115.219 153.836C115.249 161.306 115.239 168.776 115.229 176.246C115.229 193.906 115.179 211.556 115.219 229.216C115.239 237.926 119.649 243.346 128.219 244.696C131.429 245.206 134.839 244.966 138.099 244.586C148.399 243.376 157.449 239.346 164.399 231.476C172.429 222.396 175.489 211.486 175.519 197.256H175.529ZM115.239 98.1064C115.239 111.086 115.239 124.056 115.239 137.036C115.239 139.986 115.269 140.176 118.259 139.956C124.859 139.466 131.529 139.276 137.999 138.036C150.639 135.616 160.119 128.566 165.229 116.546C169.289 106.976 169.549 96.8764 167.659 86.7864C164.909 72.0664 156.209 62.5564 141.749 58.4564C134.139 56.2964 126.279 56.2064 118.449 55.8764C115.319 55.7464 115.229 55.8864 115.229 58.9464C115.229 71.9964 115.229 85.0564 115.229 98.1064H115.239Z" fill="white"/>
<path d="M925.259 146.716C927.919 144.516 930.579 142.326 933.229 140.116C956.659 120.466 980.139 100.876 1003.46 81.0964C1007.23 77.9064 1010.53 74.0664 1013.58 70.1664C1015.17 68.1264 1016.29 65.3864 1016.69 62.8064C1017.79 55.7964 1011.45 51.5564 1005.79 50.8364C1002.58 50.4264 999.349 50.0264 996.109 49.9564C993.779 49.9064 994.159 48.4964 994.069 47.0764C993.969 45.4764 994.439 44.7864 996.209 44.7864C1009.88 44.8464 1023.56 44.8164 1037.23 44.8164C1048.34 44.8164 1059.44 44.8164 1070.55 44.8164C1071.7 44.8164 1073.19 44.4564 1073.05 46.4364C1072.95 47.9364 1073.81 49.8264 1071.04 50.0764C1068.28 50.3264 1065.54 50.9364 1062.82 51.5364C1055.78 53.0964 1050.37 57.5864 1045.02 61.9764C1019.87 82.6264 994.809 103.396 969.719 124.106C969.259 124.486 968.709 124.776 968.049 125.206C970.119 127.936 971.879 130.286 973.659 132.596C993.379 158.186 1013.04 183.826 1032.89 209.326C1039.89 218.316 1047.17 227.096 1054.7 235.636C1059.5 241.076 1065.07 245.866 1072.02 248.466C1075.09 249.616 1078.39 250.256 1081.65 250.746C1084.33 251.146 1083.28 252.976 1083.44 254.336C1083.64 256.076 1082.37 255.986 1081.19 255.986C1047.49 255.986 1013.8 255.976 980.099 256.006C978.439 256.006 977.549 255.676 977.629 253.776C977.709 252.026 977.559 250.626 980.089 250.406C982.909 250.166 985.749 249.476 988.429 248.546C992.449 247.136 994.559 243.316 993.129 239.316C991.669 235.246 989.879 231.126 987.399 227.616C980.619 217.996 973.489 208.626 966.359 199.256C955.659 185.196 944.849 171.236 934.079 157.226C933.629 156.636 933.129 156.076 932.419 155.216C929.839 157.486 927.329 159.606 924.949 161.866C924.509 162.286 924.469 163.266 924.469 163.996C924.469 184.076 924.439 204.166 924.529 224.246C924.549 228.306 924.919 232.376 925.329 236.426C925.969 242.736 930.719 247.836 937.719 249.486C940.999 250.256 944.409 250.636 947.779 250.816C950.329 250.956 949.619 252.596 949.759 253.986C949.929 255.646 949.099 256.006 947.599 256.006C914.889 255.976 882.169 255.966 849.459 256.026C847.549 256.026 847.149 255.276 847.209 253.606C847.269 252.066 847.159 250.946 849.389 250.856C853.959 250.666 858.609 250.516 863.059 249.536C870.609 247.886 874.639 242.946 875.339 235.216C875.789 230.196 876.149 225.136 876.159 220.096C876.219 172.906 876.219 125.706 876.149 78.5164C876.149 73.6264 875.769 68.7264 875.279 63.8564C874.649 57.5964 869.529 52.3664 862.199 50.8764C858.249 50.0764 854.129 50.0464 850.069 49.8864C848.249 49.8164 847.139 49.7464 847.169 47.3764C847.199 45.1964 847.949 44.7564 849.949 44.7664C881.909 44.8164 913.869 44.8064 945.819 44.7864C947.479 44.7864 948.529 44.9264 948.449 47.0564C948.379 48.9064 948.209 49.8264 945.919 49.9764C942.499 50.1964 939.009 50.7464 935.739 51.7664C929.369 53.7464 926.029 58.5864 925.369 65.0064C924.749 70.9964 924.519 77.0464 924.489 83.0664C924.389 103.156 924.449 123.236 924.459 143.326C924.459 144.346 924.579 145.366 924.639 146.396C924.849 146.506 925.049 146.606 925.259 146.716Z" fill="white"/>
<path d="M728.469 256.016C700.139 256.016 671.809 256.016 643.469 256.016C640.729 256.016 639.599 254.456 640.669 251.886C640.879 251.386 641.949 251.066 642.659 250.986C647.289 250.476 652.029 250.526 656.539 249.516C663.889 247.866 668.099 242.536 668.629 235.006C669.039 229.146 669.389 223.266 669.399 217.386C669.459 171.396 669.449 125.416 669.399 79.4264C669.399 74.4564 669.209 69.4664 668.709 64.5264C668.049 58.0864 664.019 54.1064 658.229 51.7564C653.429 49.8164 648.359 49.6664 643.299 49.9064C641.109 50.0064 640.399 49.3164 640.479 47.1164C640.539 45.3264 641.059 44.7964 642.849 44.7964C698.149 44.8364 753.459 44.8364 808.759 44.7964C810.559 44.7964 811.079 45.3664 811.079 47.1364C811.029 66.1664 811.049 85.1964 811.039 104.216C811.039 105.326 811.279 106.716 809.499 106.596C807.949 106.496 806.019 107.456 805.469 104.666C803.859 96.5164 801.739 88.4964 798.009 81.0164C791.549 68.0764 780.559 60.9564 766.839 58.1864C759.729 56.7564 752.319 56.5864 745.019 56.3164C736.799 56.0164 728.549 56.2864 720.319 56.1964C718.359 56.1764 717.679 56.7864 717.679 58.7764C717.729 86.0364 717.729 113.296 717.679 140.556C717.679 142.456 718.159 143.186 720.219 143.206C727.319 143.286 734.219 142.556 740.659 139.256C749.119 134.916 753.399 127.306 756.499 118.856C759.269 111.326 760.849 103.506 761.539 95.5264C761.759 92.9364 763.419 93.3764 765.069 93.2664C766.989 93.1364 767.079 94.2264 767.069 95.6764C767.049 130.786 767.049 165.906 767.069 201.016C767.069 202.406 767.099 203.586 765.119 203.486C763.349 203.396 761.799 203.716 761.519 201.046C760.269 189.166 757.329 177.806 750.609 167.666C745.539 160.016 738.389 156.006 729.419 154.996C726.279 154.646 723.109 154.456 719.959 154.156C718.279 153.996 717.679 154.756 717.689 156.386C717.739 178.206 717.719 200.026 717.809 221.856C717.819 225.166 718.369 228.466 718.499 231.776C718.779 238.856 724.239 244.326 732.569 244.586C741.159 244.856 749.789 245.096 758.359 244.536C775.199 243.426 790.389 238.006 802.219 225.306C811.169 215.696 816.499 204.126 820.149 191.666C820.439 190.666 820.429 189.326 822.109 189.356C825.079 189.416 825.849 188.856 825.269 192.716C823.529 204.326 822.109 215.976 820.549 227.616C819.359 236.486 818.119 245.356 816.929 254.236C816.739 255.686 815.929 256.056 814.589 256.036C810.439 255.986 806.279 256.016 802.119 256.016C777.569 256.016 753.009 256.016 728.459 256.016H728.469Z" fill="white"/>
<path d="M273.329 133.746C273.329 115.326 273.419 96.8963 273.269 78.4763C273.229 73.1463 272.759 67.7863 271.989 62.5063C271.119 56.4963 267.029 52.8163 261.419 51.3663C257.389 50.3263 253.089 50.1463 248.899 49.9363C246.839 49.8263 246.609 49.0063 246.579 47.3063C246.549 45.5163 246.979 44.7763 248.959 44.7763C282.349 44.8263 315.739 44.8263 349.139 44.7763C351.119 44.7763 351.569 45.5263 351.549 47.3063C351.529 49.0063 351.259 49.8763 349.199 49.9163C344.689 50.0063 340.129 50.0863 335.689 50.7963C327.399 52.1063 322.779 57.5763 322.409 66.0363C322.139 72.1363 321.939 78.2463 321.929 84.3563C321.889 121.576 321.809 158.806 322.009 196.026C322.049 203.146 322.709 210.356 324.019 217.356C326.459 230.396 334.879 239.116 347.129 242.946C364.399 248.336 381.219 246.766 395.989 235.176C405.329 227.846 410.989 217.986 412.859 206.336C414.299 197.366 415.489 188.246 415.569 179.176C415.889 145.276 415.749 111.376 415.639 77.4663C415.629 73.5863 415.049 69.6363 414.169 65.8463C412.179 57.2163 406.259 52.0863 397.279 50.7963C394.379 50.3763 391.449 50.0163 388.519 49.9163C386.299 49.8463 386.709 48.4563 386.619 47.1263C386.519 45.6063 386.849 44.7463 388.689 44.7663C396.239 44.8463 403.799 44.7963 411.349 44.7963C425.479 44.7963 439.599 44.8163 453.729 44.7763C455.549 44.7763 456.639 44.8763 456.639 47.2563C456.639 49.6863 455.579 49.8463 453.629 49.8963C450.709 49.9763 447.729 50.1563 444.889 50.7963C435.749 52.8563 429.199 60.4663 428.489 69.8463C428.029 75.8563 427.709 81.8863 427.689 87.9063C427.569 118.786 427.829 149.676 427.379 180.546C427.219 191.036 425.739 201.556 424.149 211.956C422.429 223.166 416.269 232.156 408.279 240.036C396.709 251.446 382.789 257.746 366.769 259.746C350.139 261.826 333.469 261.986 317.489 256.736C294.459 249.176 279.239 233.856 275.259 209.186C274.049 201.706 273.529 194.066 273.419 186.486C273.159 168.896 273.339 151.306 273.339 133.706H273.319L273.329 133.746Z" fill="white"/>
<path d="M478.659 220.946C478.659 208.716 478.659 196.486 478.679 184.246C478.679 183.146 478.179 181.606 480.169 181.596C481.829 181.596 483.469 181.086 484.029 183.746C486.579 195.996 490.529 207.776 497.329 218.386C506.769 233.116 519.339 244.066 536.469 248.786C548.039 251.966 559.749 251.946 570.529 245.896C581.469 239.766 587.779 230.356 587.399 217.496C587.109 207.386 581.899 199.516 574.599 192.896C567.649 186.596 559.409 182.286 551.299 177.766C538.199 170.446 524.949 163.366 512.089 155.636C502.359 149.786 494.289 141.926 488.069 132.306C480.579 120.726 477.659 108.076 479.069 94.3664C481.329 72.3264 493.029 56.7564 512.169 46.4564C519.419 42.5564 527.379 40.9064 535.599 40.2064C550.099 38.9564 563.579 42.1664 576.469 48.5964C580.309 50.5064 584.259 52.2564 588.309 53.6464C594.799 55.8764 598.959 53.6764 601.129 47.2064C601.779 45.2764 602.379 43.3264 602.759 41.3364C603.149 39.3464 604.609 39.7564 605.729 39.9564C606.259 40.0564 606.969 41.1364 606.989 41.7864C607.229 48.6464 607.349 55.5164 607.499 62.3764C607.819 77.0864 608.149 91.7964 608.399 106.506C608.419 107.706 609.329 109.556 606.849 109.746C603.459 110.016 603.039 109.776 602.469 106.886C600.009 94.2264 595.169 82.6264 586.719 72.7764C577.969 62.5764 567.549 54.7564 554.089 52.0264C542.629 49.6964 531.499 50.4264 521.739 57.7964C508.259 67.9764 506.869 85.6064 518.239 98.0864C525.519 106.076 534.699 111.226 543.999 116.276C556.129 122.866 568.409 129.206 580.369 136.086C590.399 141.866 599.809 148.626 607.369 157.556C614.869 166.416 619.219 176.666 620.729 188.206C625.689 226.296 596.599 253.796 567.939 259.286C548.989 262.916 531.099 260.076 513.679 252.366C509.849 250.666 505.809 249.046 501.709 248.436C493.679 247.226 488.439 251.756 484.789 258.356C483.859 260.036 482.899 260.766 480.959 260.706C479.169 260.656 478.599 260.046 478.639 258.296C478.729 253.696 478.669 249.086 478.669 244.476C478.669 236.626 478.669 228.766 478.669 220.916L478.659 220.946Z" fill="white"/>
</svg>
