<svg width="1140" height="269" viewBox="0 0 1140 269" fill="none" xmlns="http://www.w3.org/2000/svg">
<path d="M0.0101065 112.989C0.161703 112.819 0.394152 112.669 0.454791 112.479C1.64735 108.639 1.64735 108.709 5.74047 108.599C15.665 108.329 25.5895 107.969 35.504 107.719C36.7673 107.689 38.1114 107.959 39.2939 108.429C49.2285 112.319 59.143 116.289 69.0574 120.22C70.2399 120.69 71.4628 121.07 70.9979 122.75C70.5936 124.22 70.7048 125.79 68.2287 125.82C59.6887 125.94 51.1589 126.34 42.629 126.65C41.4061 126.7 40.1833 126.86 38.9604 126.99C35.6556 127.33 32.6236 126.56 29.5614 125.29C20.6273 121.59 11.6123 118.06 2.61757 114.499C1.79895 114.179 0.879262 114.099 0 113.899C0 113.589 0 113.289 0 112.979L0.0101065 112.989Z" fill="white"/>
<path d="M0.0101065 155.121C0.737771 155.001 1.51597 155.011 2.18299 154.751C11.9762 150.871 21.7188 146.891 31.5524 143.111C33.4221 142.391 35.5848 142.071 37.596 142.111C45.8328 142.281 54.0695 142.641 62.2962 142.961C64.2973 143.041 66.2984 143.381 68.2792 143.271C70.5835 143.131 70.5734 144.691 70.9675 146.141C71.4021 147.741 70.5026 148.321 69.2292 148.821C61.8616 151.731 54.5142 154.661 47.1567 157.582C46.1562 157.982 45.1051 158.282 44.1551 158.782C39.0513 161.522 33.6444 161.522 28.005 161.112C20.4049 160.562 12.7645 160.592 5.14419 160.422C1.45533 160.342 1.46544 160.392 0.535642 156.741C0.464897 156.481 0.181916 156.261 0 156.031C0 155.721 0 155.421 0 155.111L0.0101065 155.121Z" fill="white"/>
<path d="M875.765 58.6864C874.754 63.1266 873.875 67.1268 872.935 71.107C869.469 85.6978 865.962 100.269 862.546 114.869C862.121 116.689 861.353 117.439 859.433 117.399C854.188 117.309 848.942 117.319 843.707 117.399C841.827 117.429 840.948 116.749 840.534 114.909C837.381 101.029 834.157 87.1679 830.943 73.3072C830.781 72.6071 830.468 71.9471 830.235 71.2671L829.578 71.1771C829.255 71.9271 828.8 72.6471 828.618 73.4272C825.425 87.1479 822.211 100.869 819.138 114.609C818.653 116.759 817.744 117.469 815.561 117.399C810.477 117.259 805.384 117.289 800.3 117.389C798.42 117.429 797.5 116.759 797.076 114.949C792.852 96.9484 788.597 78.9575 784.312 60.9665C783.897 59.2464 784.322 58.5864 786.171 58.6464C789.254 58.7464 792.346 58.7464 795.419 58.6464C797.137 58.5964 797.854 59.2464 798.198 60.9165C801.058 74.7772 803.989 88.6279 806.92 102.479C807.081 103.259 807.405 104.009 808.254 104.869C808.587 104.219 809.083 103.599 809.244 102.909C812.62 89.078 815.985 75.2473 819.25 61.3966C819.714 59.4265 820.513 58.5664 822.655 58.6264C827.507 58.7664 832.368 58.7564 837.229 58.6264C839.099 58.5764 839.847 59.3164 840.241 60.9665C842.858 72.0771 845.516 83.1877 848.164 94.2882C848.841 97.1084 849.518 99.9185 850.246 102.719C850.428 103.419 850.772 104.069 851.287 105.359C851.934 104.249 852.449 103.699 852.591 103.069C855.552 89.068 858.503 75.0773 861.363 61.0565C861.717 59.3064 862.374 58.5664 864.223 58.6264C867.902 58.7364 871.591 58.6564 875.775 58.6564L875.765 58.6864Z" fill="white"/>
<path d="M563.374 88.0479C563.374 79.1175 563.425 70.187 563.334 61.2566C563.314 59.2265 563.981 58.5364 566.002 58.6564C568.387 58.7964 570.782 58.7864 573.167 58.6564C574.966 58.5564 575.825 59.2965 576.341 60.9366C577.24 63.8067 577.311 63.7967 579.878 62.0166C588.782 55.8763 600.425 55.9763 607.257 64.0167C608.287 65.2268 608.965 64.4267 609.692 63.7167C612.674 60.8165 616.1 58.6264 620.274 58.0064C633.331 56.0563 645.186 61.9966 647.207 76.3973C647.612 79.2475 647.692 82.1676 647.713 85.0478C647.773 94.9683 647.682 104.889 647.783 114.809C647.804 116.839 647.157 117.499 645.136 117.389C642.366 117.239 639.577 117.229 636.808 117.389C634.766 117.499 634.14 116.809 634.16 114.799C634.241 104.569 634.281 94.3483 634.14 84.1177C634.109 81.6476 633.614 79.0975 632.816 76.7574C631.219 72.0871 627.035 69.467 622.527 69.877C617.393 70.347 614.048 73.2972 613.048 78.3774C612.724 80.0075 612.552 81.6976 612.542 83.3577C612.502 93.7382 612.461 104.119 612.562 114.499C612.583 116.719 611.905 117.509 609.652 117.389C606.812 117.229 603.942 117.279 601.092 117.379C599.181 117.449 598.535 116.739 598.545 114.839C598.605 104.079 598.595 93.3182 598.555 82.5577C598.545 78.9475 597.554 75.5773 595.008 72.8972C592.056 69.787 588.287 69.277 584.355 70.407C580.212 71.5971 578.19 74.8273 577.453 78.8175C577.058 80.9776 576.917 83.2077 576.907 85.4078C576.846 95.1783 576.846 104.949 576.907 114.719C576.917 116.629 576.472 117.529 574.32 117.389C571.631 117.219 568.913 117.239 566.224 117.389C564.051 117.519 563.263 116.869 563.293 114.599C563.415 105.749 563.344 96.8884 563.344 88.0379L563.374 88.0479Z" fill="white"/>
<path d="M992.363 204.254C992.363 195.403 992.424 186.543 992.323 177.692C992.292 175.572 992.939 174.822 995.092 174.972C997.315 175.132 999.569 175.132 1001.79 174.972C1003.86 174.822 1004.88 175.652 1005.47 177.562C1006.23 180.013 1006.45 180.023 1008.57 178.483C1016.74 172.562 1026.99 172.402 1034.09 178.082C1035.24 179.003 1036.41 180.603 1037.57 180.613C1038.68 180.623 1039.77 178.923 1040.94 178.052C1048.07 172.752 1055.87 172.732 1063.73 175.812C1071.4 178.803 1075.5 184.883 1076.16 192.833C1076.74 199.954 1076.62 207.144 1076.72 214.294C1076.8 219.945 1076.66 225.595 1076.76 231.235C1076.8 233.185 1076.07 233.775 1074.21 233.695C1071.44 233.585 1068.65 233.545 1065.88 233.695C1063.67 233.815 1063.14 232.925 1063.16 230.885C1063.24 220.655 1063.28 210.434 1063.14 200.204C1063.1 197.743 1062.56 195.203 1061.75 192.863C1060.16 188.273 1055.91 185.673 1051.39 186.113C1046.47 186.593 1042.99 189.673 1042.08 194.553C1041.71 196.483 1041.55 198.484 1041.54 200.454C1041.49 210.604 1041.47 220.755 1041.56 230.905C1041.58 233.005 1040.91 233.795 1038.77 233.695C1036 233.565 1033.21 233.555 1030.44 233.695C1028.56 233.795 1027.88 233.245 1027.9 231.305C1027.97 221.845 1027.98 212.374 1027.87 202.914C1027.84 200.194 1027.56 197.423 1026.99 194.763C1025.81 189.293 1021.47 185.903 1016.35 186.083C1011 186.273 1007.33 189.673 1006.41 195.433C1006.09 197.453 1005.93 199.524 1005.92 201.574C1005.87 211.264 1005.9 220.955 1005.9 230.655C1005.9 233.585 1005.84 233.655 1002.97 233.655C1000.36 233.655 997.72 233.535 995.112 233.695C993.01 233.825 992.292 233.175 992.323 231.015C992.434 222.085 992.373 213.154 992.373 204.224L992.363 204.254Z" fill="white"/>
<path d="M467.575 88.138C467.575 79.2876 467.575 70.4371 467.575 61.5867C467.575 59.6599 468.572 58.6932 470.567 58.6865C472.8 58.6865 475.044 58.7965 477.277 58.6565C479.167 58.5365 480.067 59.3265 480.623 61.0266C481.532 63.8368 481.603 63.8168 484.099 62.0367C491.608 56.6764 501.28 56.2264 508.102 60.9766C509.042 61.6267 510.002 62.3467 510.689 63.2367C511.912 64.8068 512.862 64.9568 514.318 63.4268C521.139 56.2264 533.126 56.4264 540.281 60.1066C546.87 63.4968 550.428 68.987 551.428 76.1274C551.853 79.1376 551.984 82.1977 552.004 85.2379C552.075 95.0784 551.984 104.929 552.065 114.769C552.085 116.739 551.519 117.53 549.448 117.41C546.678 117.26 543.889 117.25 541.12 117.41C538.907 117.54 538.371 116.629 538.391 114.599C538.472 104.299 538.462 93.9983 538.411 83.6978C538.391 80.3076 537.724 77.0575 535.723 74.1673C533.55 71.0171 530.427 69.7771 526.779 69.9571C522.787 70.1571 519.603 71.9772 518.219 75.8374C517.41 78.0975 516.854 80.5576 516.824 82.9378C516.672 93.4683 516.703 103.999 516.794 114.529C516.814 116.709 516.197 117.57 513.903 117.42C511.215 117.25 508.496 117.23 505.818 117.42C503.554 117.58 503.099 116.639 503.12 114.629C503.2 105.089 503.231 95.5484 503.12 86.0179C503.079 82.2977 502.786 78.5675 500.916 75.1574C499.087 71.8272 495.287 69.5871 491.618 69.8871C487.273 70.2471 483.796 72.0572 482.533 76.3874C481.714 79.1976 481.249 82.2077 481.199 85.1379C481.037 94.9784 481.077 104.829 481.178 114.669C481.199 116.769 480.592 117.54 478.43 117.41C475.66 117.25 472.871 117.28 470.102 117.41C468.182 117.5 467.555 116.839 467.565 114.929C467.646 105.999 467.595 97.0785 467.595 88.148L467.575 88.138Z" fill="white"/>
<path d="M747.777 174.722C747.16 174.722 746.534 174.662 745.927 174.722C742.936 175.042 740.864 174.742 739.732 171.082C738.317 166.522 733.961 164.732 729.514 163.812C724.431 162.752 719.57 163.422 715.183 166.412C711.868 168.672 709.675 173.192 710.352 176.413C710.898 179.003 712.546 180.703 714.799 181.943C718.812 184.153 723.279 184.523 727.705 185.043C734.305 185.803 740.823 186.843 746.766 190.033C753.81 193.813 757.287 199.824 757.823 207.614C758.894 223.045 748.626 231.955 734.557 234.075C725.057 235.506 715.638 235.076 706.825 230.595C699.842 227.045 695.668 221.435 694.415 213.744C694.142 212.094 694.364 210.924 696.598 211.034C699.983 211.194 703.379 211.064 706.775 211.174C707.381 211.194 708.372 211.704 708.493 212.164C709.908 217.515 714.031 219.825 718.852 221.275C725.916 223.395 732.728 222.915 738.873 218.535C745.796 213.594 745.129 205.334 737.67 201.284C733.052 198.774 727.988 198.504 722.945 197.974C715.992 197.244 709.251 195.784 703.51 191.503C698.851 188.033 696.658 183.263 696.193 177.573C694.91 161.952 707.24 153.701 718.69 151.701C726.685 150.301 734.527 151.141 741.834 154.831C749.121 158.512 753.962 164.032 754.902 172.442C755.114 174.332 754.528 174.772 752.87 174.732C751.172 174.682 749.475 174.722 747.777 174.722Z" fill="white"/>
<path d="M383.55 62.5167C379.689 63.5968 377.304 61.7867 375.051 57.2664C368.492 44.1058 348.764 43.3357 340.325 55.4363C336.808 60.4866 335.11 66.1469 334.574 72.1072C333.857 80.1476 334.291 88.058 338.334 95.4484C342.306 102.719 350.664 106.929 358.961 106.039C367.784 105.099 373.494 100.479 376.769 92.5883C377.496 90.8182 378.477 90.1481 380.397 90.2481C383.469 90.3981 386.562 90.3081 389.644 90.2781C391.251 90.2681 391.848 90.8182 391.494 92.5182C389.816 100.569 385.602 107.049 379.012 111.909C366.662 121.03 345.752 120.73 333.705 111.329C328.086 106.949 324.478 101.159 322.517 94.3983C318.899 81.8877 319.01 69.3471 323.558 57.1464C328.601 43.6257 338.536 35.9754 353.261 34.7653C365.015 33.7952 375.435 36.6754 383.671 45.3458C387.724 49.6161 390.574 54.6363 391.595 60.5666C391.858 62.0767 391.383 62.5367 389.988 62.5167C388.138 62.4967 386.289 62.5167 383.54 62.5167H383.55Z" fill="white"/>
<path d="M973.029 81.5376C976.678 81.5376 979.144 81.5876 981.61 81.5276C985.056 81.4376 986.42 79.5375 985.572 76.2274C984.975 73.8972 983.49 72.2772 981.357 71.3671C976.334 69.217 971.16 69.167 966.046 70.9771C963.56 71.8571 961.65 73.5972 961.134 76.3174C960.871 77.6874 960.174 78.0375 958.911 78.0175C955.828 77.9775 952.746 77.9274 949.663 78.0375C947.693 78.1075 947.298 77.2674 947.581 75.5373C948.855 67.5969 953.504 62.3567 961.023 59.8565C971.574 56.3363 982.044 56.4263 991.514 62.9367C997.386 66.9669 999.67 73.0072 999.124 80.0676C999.064 80.9076 999.054 81.7476 999.043 82.5777C999.043 93.1082 998.993 103.629 999.084 114.159C999.104 116.279 998.609 117.239 996.274 117.059C993.899 116.879 991.484 117.169 989.119 116.939C988.199 116.849 986.885 116.049 986.592 115.269C985.794 113.189 984.733 113.399 983.247 114.329C975.536 119.15 967.249 119.28 958.779 117.069C950.664 114.949 945.732 108.859 945.56 100.759C945.388 92.5382 949.987 86.2979 958.264 83.3877C963.449 81.5676 968.795 81.3576 973.029 81.5476V81.5376ZM976.819 92.3182C976.789 92.1282 976.769 91.9482 976.739 91.7582C972.352 92.3582 967.885 92.6382 963.6 93.6683C960.144 94.4983 958.608 97.0984 958.749 100.069C958.88 102.819 960.962 105.309 964.469 105.739C967.764 106.139 971.281 106.249 974.495 105.549C980.235 104.299 984.611 101.129 985.753 94.8683C986.057 93.2282 985.471 92.3482 983.752 92.3282C981.438 92.3082 979.124 92.3282 976.819 92.3282V92.3182Z" fill="white"/>
<path d="M1085.41 76.3474C1085.41 63.7568 1085.46 51.1761 1085.36 38.5855C1085.34 36.3754 1086 35.6053 1088.24 35.7353C1091.01 35.9053 1093.79 35.8553 1096.56 35.7453C1098.36 35.6753 1098.99 36.2954 1098.97 38.1054C1098.89 45.6558 1098.92 53.2062 1098.97 60.7666C1098.97 61.5366 1099.35 62.3067 1099.56 63.0867C1100.29 62.7867 1101.14 62.6367 1101.73 62.1667C1111.88 54.0863 1128.47 57.2164 1134.93 68.417C1137.79 73.3672 1139.13 78.6975 1139.16 84.3578C1139.2 94.4283 1139.12 104.499 1139.22 114.569C1139.24 116.809 1138.5 117.55 1136.27 117.41C1133.58 117.239 1130.87 117.249 1128.18 117.41C1126.08 117.54 1125.6 116.719 1125.61 114.769C1125.69 104.929 1125.72 95.0884 1125.61 85.2479C1125.56 80.7176 1124.44 76.4474 1120.75 73.3572C1116.72 69.9971 1112.07 69.6771 1107.26 71.2171C1102.74 72.6572 1100.18 75.9174 1099.4 80.5076C1099.11 82.2277 1098.97 83.9878 1098.96 85.7279C1098.92 95.4184 1098.89 105.109 1098.98 114.789C1099 116.779 1098.39 117.52 1096.34 117.41C1093.57 117.259 1090.78 117.259 1088.02 117.41C1085.99 117.52 1085.36 116.819 1085.37 114.809C1085.45 101.999 1085.41 89.1781 1085.41 76.3574V76.3474Z" fill="white"/>
<path d="M761.703 175.022C766.423 175.022 770.648 174.942 774.872 175.112C775.499 175.142 776.368 176.273 776.621 177.053C779.976 187.423 783.24 197.834 786.525 208.224C787.647 211.784 788.758 215.355 789.921 218.905C790.163 219.655 790.578 220.345 790.911 221.065C791.144 221.085 791.386 221.115 791.619 221.135C792.043 220.155 792.548 219.205 792.872 218.195C797.056 205.054 801.21 191.893 805.384 178.743C806.172 176.243 807.917 174.996 810.619 175.002C813.903 175.002 817.198 175.002 820.947 175.002C819.795 178.393 818.775 181.393 817.754 184.393C811.255 203.614 804.797 222.845 798.258 242.056C796.308 247.776 793.357 252.826 787.323 255.197C785.363 255.967 783.17 256.467 781.067 256.537C775.448 256.727 769.809 256.547 764.179 256.647C762.35 256.677 761.703 256.067 761.804 254.267C761.926 251.906 761.885 249.536 761.815 247.166C761.764 245.606 762.36 244.996 763.977 245.016C768.222 245.096 772.457 245.066 776.701 245.036C781.431 244.996 783.826 242.166 782.422 237.686C779.086 227.005 775.509 216.395 771.961 205.774C768.869 196.524 765.685 187.303 762.552 178.063C762.269 177.223 762.077 176.353 761.713 175.002L761.703 175.022Z" fill="white"/>
<path d="M326.924 192.673C326.924 180.003 326.964 167.332 326.883 154.661C326.873 152.681 327.429 152.011 329.481 152.021C347.218 152.091 364.954 152.101 382.701 152.041C384.733 152.041 385.46 152.671 385.339 154.671C385.198 157.032 385.177 159.412 385.339 161.762C385.47 163.762 384.591 164.222 382.772 164.212C369.967 164.162 357.162 164.182 344.368 164.182C341.827 164.182 340.554 165.462 340.547 168.022C340.547 173.062 340.658 178.103 340.497 183.133C340.416 185.503 341.255 186.083 343.549 186.053C353.039 185.933 362.519 186.053 372.009 185.963C374.02 185.943 374.808 186.563 374.697 188.583C374.566 190.943 374.525 193.323 374.707 195.674C374.889 197.994 373.888 198.494 371.746 198.474C362.256 198.384 352.776 198.494 343.286 198.384C341.144 198.354 340.487 198.984 340.507 201.084C340.588 211.084 340.497 221.085 340.567 231.075C340.578 233.035 340.052 233.836 337.96 233.716C335.12 233.556 332.25 233.596 329.4 233.706C327.439 233.786 326.883 232.975 326.893 231.135C326.954 218.315 326.924 205.494 326.924 192.663V192.673Z" fill="white"/>
<path d="M915.827 92.7482C909.733 92.7482 903.639 92.7382 897.554 92.7582C894.755 92.7682 894.341 93.3183 894.826 96.0684C895.776 101.449 900.94 105.889 906.984 106.219C909.49 106.359 912.118 106.239 914.533 105.629C916.373 105.169 918.374 104.089 919.556 102.679C921.072 100.869 922.578 100.189 924.862 100.319C927.702 100.479 930.562 100.389 933.422 100.349C934.938 100.329 935.322 100.869 934.847 102.319C933.24 107.249 930.178 110.999 925.772 113.759C915.696 120.07 901.506 119.72 892.006 112.799C885.892 108.349 882.759 102.049 881.435 94.8683C880.121 87.688 880.636 80.5576 883.648 73.8073C887.67 64.8068 894.684 59.6365 904.558 58.1465C911.198 57.1464 917.494 58.1065 923.285 61.3066C931.603 65.8869 935.605 73.4272 936.899 82.4777C937.283 85.1478 936.99 87.918 937.061 90.6381C937.101 92.3982 936.141 92.7882 934.574 92.7682C928.329 92.7182 922.083 92.7482 915.837 92.7482H915.827ZM908.914 82.0377C912.916 82.0377 916.918 81.9777 920.91 82.0677C922.972 82.1177 923.457 81.2876 923.043 79.4175C922.295 76.0174 920.405 73.4872 917.434 71.6972C914.038 69.647 910.289 69.447 906.509 69.8171C900.657 70.3771 895.897 74.5573 894.755 79.5676C894.26 81.7177 895.078 82.0877 896.918 82.0677C900.92 82.0177 904.922 82.0477 908.914 82.0477V82.0377Z" fill="white"/>
<path d="M961.276 209.074C955.181 209.074 949.097 209.054 943.003 209.084C939.971 209.094 939.516 209.724 940.163 212.705C941.305 217.965 946.177 222.195 952.109 222.505C955.05 222.655 958.102 222.245 960.972 221.555C962.549 221.175 964.166 219.925 965.207 218.635C966.359 217.205 967.491 216.605 969.28 216.665C972.433 216.765 975.607 216.715 978.76 216.675C980.276 216.655 980.619 217.175 980.134 218.645C977.941 225.285 973.373 229.666 966.925 232.116C956.303 236.146 946.055 235.646 936.747 228.695C931.29 224.625 928.278 218.895 926.994 212.305C925.185 203.014 925.873 194.024 931.259 185.933C937.384 176.723 946.51 173.353 957.213 174.303C969.442 175.403 977.476 182.033 981.064 193.714C982.368 197.964 983.004 202.284 982.398 206.764C982.156 208.514 981.519 209.114 979.791 209.094C973.626 209.034 967.451 209.064 961.286 209.074H961.276ZM954.231 198.364C958.314 198.364 962.397 198.334 966.48 198.374C967.936 198.384 968.583 197.964 968.38 196.364C968.017 193.484 966.642 191.214 964.52 189.323C960.75 185.973 956.142 185.653 951.472 186.183C945.974 186.803 941.285 190.774 940.143 195.334C939.506 197.884 939.85 198.354 942.447 198.364C946.379 198.384 950.31 198.364 954.231 198.364Z" fill="white"/>
<path d="M1093.15 214.385C1093.62 214.385 1094.08 214.415 1094.54 214.385C1097.56 214.135 1100.06 214.225 1101.28 217.965C1101.8 219.545 1104.15 220.955 1105.98 221.615C1110.58 223.275 1115.38 223.125 1120.02 221.615C1121.4 221.165 1122.8 220.215 1123.76 219.125C1126.34 216.215 1125.34 212.165 1121.59 211.025C1118.62 210.125 1115.41 209.985 1112.33 209.424C1107.66 208.584 1102.89 208.004 1098.35 206.704C1092.27 204.954 1088.19 200.874 1087.33 194.474C1086.46 187.913 1089.14 182.633 1094.59 178.933C1100.68 174.803 1107.56 173.623 1114.84 174.333C1119.57 174.793 1124.15 175.693 1128.16 178.373C1133.11 181.673 1136.02 186.193 1136.43 192.194C1136.54 193.764 1136.04 194.404 1134.37 194.344C1131.37 194.244 1128.36 194.384 1125.35 194.264C1124.68 194.234 1123.55 193.724 1123.42 193.224C1122.28 188.773 1118.95 186.993 1114.85 186.323C1111.02 185.693 1107.19 185.793 1103.53 187.463C1101.49 188.393 1100.29 189.953 1100.41 192.084C1100.52 194.124 1101.78 195.634 1103.96 196.004C1108.65 196.814 1113.39 197.374 1118.03 198.394C1122.2 199.304 1126.52 200.144 1130.33 201.954C1141.38 207.194 1140.21 223.355 1131.76 229.325C1121.11 236.856 1101.82 236.416 1092.2 227.725C1089.03 224.855 1087.08 221.295 1086.34 217.095C1086.02 215.225 1086.54 214.145 1088.74 214.355C1090.19 214.495 1091.67 214.385 1093.13 214.385H1093.15Z" fill="white"/>
<path d="M831.327 214.385C831.862 214.385 832.418 214.445 832.944 214.385C835.945 214.005 838.159 214.505 839.129 217.975C839.836 220.525 842.535 221.715 844.89 221.945C848.892 222.355 852.985 222.215 857.007 221.905C858.473 221.795 860.049 220.745 861.201 219.715C864.324 216.935 863.566 212.445 859.615 211.075C856.977 210.154 854.076 209.934 851.277 209.494C847.487 208.904 843.647 208.584 839.897 207.804C834.813 206.754 830.114 204.764 827.294 200.104C823.262 193.464 825.091 184.543 831.408 179.783C837.805 174.963 845.132 173.373 852.985 174.433C856.532 174.913 860.161 175.623 863.445 176.973C869.651 179.523 873.198 184.453 874.38 191.004C874.906 193.924 874.552 194.314 871.54 194.324C868.842 194.324 866.133 194.414 863.445 194.264C862.728 194.224 861.565 193.624 861.414 193.064C860.241 188.843 857.058 187.103 853.147 186.403C849.326 185.723 845.486 185.713 841.817 187.363C839.735 188.293 838.401 189.753 838.432 192.074C838.452 194.374 840.119 195.574 842.05 195.964C846.709 196.914 851.418 197.634 856.118 198.334C860.625 199.014 864.981 199.914 869.024 202.244C877.058 206.874 877.736 217.015 874.502 223.625C871.935 228.865 867.296 231.466 861.98 232.986C851.853 235.886 842.03 235.326 832.863 229.705C828.548 227.055 825.778 223.215 824.606 218.295C823.787 214.885 824.192 214.385 827.638 214.385C828.871 214.385 830.104 214.385 831.337 214.385H831.327Z" fill="white"/>
<path d="M458.469 214.384C459.318 214.384 460.167 214.434 461.016 214.374C463.421 214.194 465.099 214.384 466.16 217.325C467.454 220.925 471.133 222.265 474.791 222.485C477.914 222.675 481.118 222.495 484.2 221.985C488 221.355 490.183 218.945 490.294 216.075C490.396 213.424 489.506 211.704 486.919 211.024C483.897 210.234 480.734 209.944 477.641 209.424C473.548 208.744 469.374 208.364 465.392 207.284C457.681 205.184 453.275 200.414 452.729 194.643C451.839 185.193 456.589 179.973 463.563 176.863C472.457 172.892 481.573 173.142 490.487 176.772C497.228 179.523 500.896 184.863 501.876 192.003C502.079 193.463 501.684 194.353 499.936 194.313C496.773 194.243 493.609 194.343 490.456 194.243C489.84 194.223 488.799 193.693 488.698 193.243C487.647 188.573 484.099 186.943 479.966 186.273C476.459 185.713 472.891 185.703 469.505 187.133C467.403 188.023 465.817 189.333 465.827 191.873C465.827 194.463 467.606 195.593 469.718 196.003C474.306 196.914 478.935 197.624 483.564 198.304C489.496 199.174 495.135 200.494 499.694 204.844C505.606 210.504 504.929 225.135 496.096 229.865C483.412 236.666 470.92 236.556 458.803 228.645C454.315 225.715 452.213 221.105 451.607 215.875C451.556 215.414 452.426 214.464 452.931 214.414C454.76 214.234 456.63 214.344 458.479 214.344L458.469 214.384Z" fill="white"/>
<path d="M441.763 204.604C441.763 213.375 441.713 222.145 441.804 230.915C441.824 232.986 441.248 233.856 439.065 233.716C436.841 233.566 434.588 233.546 432.364 233.716C430.262 233.886 429.12 233.246 428.494 231.155C427.756 228.665 427.028 228.455 425.199 230.225C416.396 238.686 394.708 235.466 389.907 219.845C388.674 215.835 388.118 211.494 388.007 207.284C387.734 197.454 387.977 187.613 387.876 177.773C387.856 175.523 388.634 174.833 390.827 174.963C393.515 175.123 396.224 175.113 398.912 174.963C400.964 174.853 401.57 175.613 401.56 177.603C401.479 187.903 401.388 198.194 401.58 208.494C401.691 214.365 404.036 219.325 409.918 221.565C417.67 224.515 427.331 220.595 427.756 210.624C428.211 199.894 428.059 189.133 428.17 178.393C428.2 175.013 428.18 175.013 431.677 175.013C433.991 175.013 436.306 175.013 438.61 175.013C441.662 175.013 441.773 175.113 441.773 178.063C441.773 186.913 441.773 195.754 441.773 204.604H441.763Z" fill="white"/>
<path d="M723.956 88.1079C723.956 79.3375 723.956 70.557 723.956 61.7866C723.956 58.6964 723.966 58.6964 727.19 58.6964C729.272 58.6964 731.364 58.8464 733.436 58.6564C735.457 58.4764 736.367 59.3664 736.963 61.1165C737.893 63.7867 738.064 63.7967 740.409 62.1166C750.91 54.5962 766.282 56.9263 773.023 67.0668C776.358 72.0771 777.56 77.7574 777.672 83.5877C777.884 94.0382 777.702 104.499 777.773 114.949C777.783 116.879 777.096 117.499 775.206 117.419C772.356 117.299 769.495 117.289 766.645 117.419C764.705 117.509 764.089 116.789 764.099 114.919C764.159 105.149 764.149 95.3883 764.109 85.6178C764.099 81.7376 763.361 78.0074 760.905 74.8472C757.61 70.607 753.194 69.2869 747.979 70.237C743.077 71.127 739.692 73.8272 738.337 78.6374C737.822 80.4475 737.529 82.3776 737.509 84.2577C737.428 94.4082 737.407 104.559 737.509 114.699C737.529 116.849 736.842 117.529 734.719 117.409C731.879 117.259 729.009 117.289 726.159 117.409C724.411 117.479 723.895 116.799 723.905 115.139C723.956 106.139 723.936 97.1284 723.936 88.1279L723.956 88.1079Z" fill="white"/>
<path d="M607.337 204.404C607.337 195.473 607.388 186.543 607.297 177.622C607.277 175.662 607.802 174.832 609.894 174.982C612.118 175.132 614.372 175.152 616.595 174.982C618.636 174.822 619.708 175.602 620.355 177.472C621.234 180.013 621.486 180.033 623.649 178.472C632.502 172.082 645.146 172.492 653.13 179.633C658.082 184.053 660.366 189.953 660.598 196.343C661.033 208.074 660.952 219.825 661.134 231.565C661.154 233.155 660.497 233.745 658.931 233.715C655.848 233.655 652.756 233.635 649.683 233.725C648.066 233.775 647.541 233.215 647.551 231.615C647.591 222.305 647.591 212.994 647.49 203.684C647.46 201.264 647.258 198.794 646.712 196.443C645.065 189.493 639.345 185.433 632.664 186.243C625.458 187.123 620.961 192.063 620.9 199.424C620.819 209.874 620.88 220.335 620.87 230.785C620.87 233.645 620.819 233.685 617.848 233.685C615.301 233.685 612.744 233.515 610.218 233.725C607.772 233.925 607.257 232.965 607.287 230.725C607.408 221.955 607.337 213.174 607.337 204.404Z" fill="white"/>
<path d="M905.468 166.652C905.468 168.862 905.508 171.082 905.458 173.292C905.427 174.562 905.923 175.062 907.226 175.032C910.228 174.972 913.24 175.072 916.251 174.992C917.788 174.952 918.546 175.392 918.485 177.053C918.394 179.643 918.404 182.243 918.485 184.833C918.525 186.393 917.959 187.043 916.332 186.993C913.563 186.913 910.774 187.053 908.004 186.943C906.185 186.863 905.407 187.323 905.427 189.333C905.528 198.564 905.458 207.794 905.478 217.035C905.478 219.735 906.812 221.105 909.581 221.215C911.815 221.305 914.058 221.305 916.292 221.235C917.838 221.185 918.556 221.665 918.495 223.315C918.394 226.135 918.434 228.965 918.475 231.785C918.485 232.955 918.202 233.735 916.827 233.685C912.451 233.535 908.015 233.765 903.699 233.165C895.513 232.025 891.157 225.615 891.703 217.465C892.178 210.324 891.854 203.124 891.875 195.954C891.875 193.583 891.875 191.223 891.875 188.853C891.875 187.553 891.319 186.913 889.914 186.953C887.68 187.023 885.437 186.893 883.203 186.993C881.536 187.063 880.798 186.513 880.859 184.773C880.95 182.183 880.929 179.583 880.859 176.993C880.818 175.492 881.445 174.942 882.92 174.992C885.073 175.062 887.246 174.892 889.399 175.042C891.4 175.182 891.976 174.292 891.945 172.502C891.875 168.532 891.955 164.562 891.844 160.602C891.794 158.792 892.269 157.942 894.29 158.032C897.292 158.172 900.303 158.112 903.305 158.052C904.912 158.022 905.518 158.692 905.478 160.242C905.417 162.372 905.458 164.512 905.458 166.652H905.468Z" fill="white"/>
<path d="M1046.09 88.188C1046.09 83.0777 1046.04 77.9675 1046.12 72.8572C1046.14 71.1971 1045.65 70.4971 1043.89 70.6171C1041.81 70.7571 1039.72 70.5671 1037.65 70.6771C1035.9 70.7671 1035.34 70.0371 1035.4 68.387C1035.49 65.9469 1035.5 63.5067 1035.4 61.0666C1035.33 59.3265 1035.87 58.5365 1037.75 58.6565C1039.82 58.7865 1041.92 58.6065 1043.99 58.7065C1045.63 58.7965 1046.14 58.1465 1046.12 56.5864C1046.05 52.4662 1046.16 48.346 1046.07 44.2357C1046.04 42.6357 1046.58 42.0756 1048.19 42.1056C1051.27 42.1756 1054.36 42.1656 1057.44 42.0656C1059.12 42.0056 1059.77 42.5557 1059.72 44.2858C1059.62 48.176 1059.75 52.0662 1059.67 55.9564C1059.63 57.9565 1060.21 58.8765 1062.44 58.7265C1065.2 58.5365 1067.99 58.7365 1070.76 58.6665C1072.31 58.6265 1073.06 59.1365 1073.02 60.7566C1072.96 63.3467 1072.97 65.9469 1073.02 68.537C1073.05 70.1271 1072.35 70.7071 1070.79 70.6771C1067.86 70.6171 1064.93 70.7171 1062.01 70.6371C1060.47 70.5971 1059.7 71.0971 1059.71 72.6972C1059.73 81.9977 1059.66 91.3082 1059.75 100.609C1059.78 103.439 1061.48 104.879 1064.35 104.929C1066.5 104.969 1068.67 104.989 1070.82 104.929C1072.34 104.879 1073.1 105.329 1073.04 106.989C1072.95 109.729 1073.12 112.489 1072.94 115.219C1072.89 115.959 1071.99 117.269 1071.5 117.259C1066.29 117.169 1061.05 118.04 1055.9 116.459C1049.38 114.459 1046.7 110.169 1046.13 103.059C1045.93 100.559 1046.1 98.0285 1046.1 95.5084C1046.1 93.0682 1046.1 90.6281 1046.1 88.188H1046.09Z" fill="white"/>
<path d="M1012.65 76.4574C1012.65 63.8667 1012.71 51.2661 1012.6 38.6754C1012.58 36.3153 1013.32 35.5853 1015.64 35.7353C1018.33 35.9153 1021.04 35.8353 1023.73 35.7553C1025.46 35.7053 1026.27 36.2553 1026.27 38.1054C1026.23 63.7467 1026.23 89.398 1026.27 115.039C1026.27 116.909 1025.45 117.419 1023.74 117.379C1020.96 117.309 1018.19 117.229 1015.42 117.399C1013.27 117.529 1012.61 116.799 1012.63 114.689C1012.71 101.939 1012.67 89.198 1012.67 76.4474L1012.65 76.4574Z" fill="white"/>
<path d="M134.618 268.887C132.698 269.267 131.92 268.497 131.546 266.707C129.342 256.217 127.008 245.746 124.795 235.256C124.562 234.176 124.683 232.956 124.906 231.866C127.099 221.445 129.393 211.054 131.546 200.624C131.92 198.814 132.708 198.344 134.477 198.294C136.407 198.234 136.973 199.064 137.316 200.724C139.459 210.994 141.925 221.215 143.724 231.546C144.28 234.746 143.31 238.286 142.653 241.596C140.985 249.946 139.065 258.247 137.337 266.577C136.993 268.247 136.518 269.387 134.618 268.877V268.887Z" fill="white"/>
<path d="M134.588 0.103544C136.417 -0.346479 136.953 0.723576 137.286 2.28366C139.51 12.7742 141.915 23.2247 143.926 33.7553C144.371 36.0854 143.653 38.7155 143.148 41.1356C141.268 50.2161 139.206 59.2666 137.337 68.357C136.973 70.1271 136.265 70.7272 134.446 70.7172C132.637 70.7172 131.909 70.1671 131.536 68.367C129.393 58.0165 126.866 47.736 125.027 37.3254C124.471 34.2053 125.522 30.7251 126.179 27.4749C127.897 18.9745 129.848 10.5241 131.596 2.03364C131.97 0.213549 132.971 -0.16647 134.588 0.0935433V0.103544Z" fill="white"/>
<path d="M234.682 107.709C244.991 108.089 255.289 108.519 265.598 108.829C267.599 108.889 267.973 110.009 268.235 111.559C268.508 113.14 267.841 113.87 266.396 114.44C256.674 118.27 247.022 122.3 237.239 125.98C234.894 126.86 232.125 126.96 229.558 126.91C221.554 126.76 213.56 126.37 205.555 126.06C204.019 126 202.473 125.65 200.957 125.8C198.602 126.02 198.208 124.6 197.834 122.85C197.409 120.86 198.915 120.57 200.148 120.07C209.982 116.12 219.815 112.149 229.7 108.299C231.226 107.709 232.974 107.709 234.631 107.439C234.642 107.529 234.662 107.619 234.672 107.709H234.682Z" fill="white"/>
<path d="M234.975 161.982C231.943 161.082 228.83 160.372 225.889 159.242C217.218 155.892 208.617 152.371 199.987 148.921C198.764 148.431 197.419 148.111 197.844 146.281C198.228 144.611 198.481 143.271 200.906 143.231C209.83 143.101 218.815 143.241 227.648 142.201C234.631 141.381 240.2 144.311 246.133 146.591C253.005 149.241 259.807 152.091 266.679 154.752C268.043 155.282 268.458 156.002 268.246 157.322C268.023 158.682 267.963 160.132 266.103 160.362C265.871 160.392 265.638 160.402 265.416 160.412C255.34 160.692 245.263 160.972 235.187 161.262C235.117 161.502 235.046 161.752 234.985 161.992L234.975 161.982Z" fill="white"/>
<path d="M158.793 75.0473C154.396 74.0873 154.255 74.0673 154.801 70.0071C156.013 60.8966 157.539 51.8162 158.611 42.6957C159.045 38.9655 160.602 35.9253 162.552 32.8852C167.515 25.1748 172.386 17.4144 177.207 9.624C178.227 7.96392 179.187 7.5939 181.098 8.28393C182.977 8.96397 182.998 9.86401 182.745 11.5341C181.219 21.8346 179.925 32.1752 178.339 42.4657C178.035 44.4058 176.974 46.3259 175.913 48.036C170.648 56.5364 165.261 64.9668 159.914 73.4173C159.551 73.9873 159.146 74.5273 158.783 75.0473H158.793Z" fill="white"/>
<path d="M90.2405 261.397C85.8442 260.077 85.7431 260.057 86.299 255.917C87.6331 245.976 89.0581 236.046 90.5134 226.115C90.6751 225.015 91.14 223.885 91.7262 222.945C97.4767 213.745 103.349 204.624 109.018 195.384C110.181 193.484 111.323 194.254 112.667 194.674C113.96 195.084 114.557 195.584 114.294 197.284C112.717 207.654 111.393 218.055 109.908 228.435C109.716 229.755 109.372 231.175 108.675 232.296C103.035 241.386 97.2948 250.406 91.5847 259.447C91.1804 260.087 90.7155 260.687 90.2304 261.377L90.2405 261.397Z" fill="white"/>
<path d="M18.3129 203.664C17.7065 202.754 16.8778 201.824 16.423 200.734C16.1905 200.174 16.3522 199.064 16.7767 198.674C25.0943 191.183 33.4524 183.763 41.8508 176.372C42.5684 175.742 43.5487 175.322 44.4684 175.012C54.7467 171.652 65.0654 168.412 75.3234 164.962C77.5569 164.212 77.8601 165.652 78.7293 166.862C79.6591 168.152 79.366 168.902 78.2341 169.902C70.0681 177.082 61.9627 184.343 53.8169 191.553C53.1499 192.143 52.3312 192.673 51.4924 192.943C41.0524 196.353 30.5922 199.714 20.1321 203.074C19.6975 203.214 19.2528 203.354 18.3028 203.654L18.3129 203.664Z" fill="white"/>
<path d="M252.894 199.574C252.955 201.644 250.478 203.614 248.811 203.084C238.27 199.724 227.698 196.444 217.228 192.863C215.247 192.183 213.62 190.353 211.973 188.903C204.969 182.713 198.066 176.413 191.002 170.292C189.375 168.882 189.617 167.862 190.436 166.232C191.366 164.382 192.528 164.752 194.014 165.232C203.372 168.262 212.781 171.152 222.099 174.292C224.424 175.083 226.779 176.293 228.628 177.883C236.43 184.563 244.041 191.443 251.711 198.274C252.207 198.714 252.611 199.264 252.894 199.584V199.574Z" fill="white"/>
<path d="M94.647 84.0378C93.6363 84.8979 92.6762 85.9079 91.5241 86.578C91.14 86.798 90.1395 86.328 89.6241 85.9179C81.3469 79.5676 73.0192 73.2573 64.8936 66.7169C62.943 65.1469 61.3866 62.9168 60.1536 60.7066C55.444 52.2262 50.9871 43.6058 46.3179 35.0953C45.3982 33.4152 45.8328 32.5652 47.1668 31.5051C48.4201 30.4951 49.3094 30.2351 50.7344 31.3551C59.2239 38.0555 67.8042 44.6458 76.324 51.3162C77.1426 51.9562 77.9309 52.7862 78.416 53.6863C83.5299 63.0868 88.5831 72.5172 93.6363 81.9377C93.9597 82.5378 94.2326 83.1678 94.647 84.0278V84.0378Z" fill="white"/>
<path d="M223.444 33.1851C223.019 34.0152 222.777 34.4852 222.524 34.9652C217.4 44.5157 212.296 54.0762 207.122 63.6067C206.596 64.5768 205.757 65.4568 204.878 66.1468C196.48 72.7072 188.021 79.2075 179.612 85.7578C178.44 86.6679 177.49 87.0679 176.216 85.8478C175.084 84.7678 173.973 84.1278 175.064 82.1577C180.309 72.6772 185.332 63.0867 190.537 53.5862C191.204 52.3661 192.387 51.3561 193.508 50.476C201.725 44.0557 209.972 37.6754 218.269 31.3451C218.855 30.895 220.028 30.595 220.594 30.875C221.695 31.4151 222.554 32.4251 223.444 33.1851Z" fill="white"/>
<path d="M49.1881 238.636C47.2376 238.596 45.4487 235.756 46.2572 234.235C51.1993 225.005 56.2323 215.824 61.0531 206.544C62.6297 203.504 65.409 201.884 67.8952 199.914C74.8686 194.383 81.9734 189.003 88.9974 183.533C90.2304 182.573 91.2411 181.883 92.757 183.263C94.1214 184.513 94.6267 185.423 93.5959 187.273C88.4921 196.493 83.7219 205.894 78.4867 215.034C77.1931 217.295 74.7271 218.975 72.5845 220.665C65.2978 226.415 57.9201 232.045 50.5626 237.716C50.0876 238.086 49.562 238.386 49.1881 238.626V238.636Z" fill="white"/>
<path d="M178.076 182.343C178.379 182.543 178.834 182.813 179.248 183.133C188 189.873 196.752 196.614 205.474 203.394C206.172 203.934 206.727 204.724 207.152 205.504C212.316 215.044 217.37 224.635 222.615 234.125C223.767 236.206 222.291 236.716 221.281 237.776C220.139 238.976 219.31 238.596 218.168 237.706C209.588 230.995 200.947 224.365 192.366 217.675C191.608 217.085 190.931 216.285 190.476 215.454C185.312 205.924 180.208 196.374 175.084 186.823C174.195 185.173 176.014 182.273 178.076 182.343Z" fill="white"/>
<path d="M191.76 104.559C191.154 103.639 190.244 102.629 189.809 101.449C189.597 100.879 190.072 99.7688 190.598 99.2887C196.5 93.9385 202.695 88.8982 208.345 83.3079C213.509 78.1977 219.411 74.9575 226.435 73.0774C233.995 71.0573 241.383 68.4171 248.781 65.877C250.792 65.187 251.307 66.307 252.166 67.5371C253.116 68.8872 252.874 69.7272 251.661 70.7973C243.505 77.9876 235.42 85.258 227.284 92.4684C226.617 93.0584 225.778 93.5684 224.929 93.8484C214.348 97.2986 203.746 100.699 193.155 104.119C192.862 104.209 192.568 104.299 191.75 104.559H191.76Z" fill="white"/>
<path d="M158.793 193.783C165.109 203.844 171.537 213.614 177.389 223.705C178.935 226.365 178.864 230.005 179.339 233.225C180.562 241.496 181.603 249.796 182.876 258.057C183.129 259.727 182.472 260.287 181.158 260.677C179.915 261.047 178.824 261.977 177.672 260.127C171.891 250.776 165.857 241.576 160.157 232.175C159.035 230.325 158.884 227.845 158.55 225.615C157.135 216.065 155.791 206.514 154.518 196.944C154.437 196.354 154.983 195.424 155.518 195.074C156.387 194.503 157.489 194.283 158.803 193.793L158.793 193.783Z" fill="white"/>
<path d="M18.2623 65.387C21.365 66.377 23.9219 67.1971 26.489 68.0171C34.5337 70.5872 42.5987 73.1274 50.6232 75.7575C51.8259 76.1575 53.0285 76.8476 53.9785 77.6876C62.0334 84.778 69.9973 91.9783 78.0723 99.0487C79.5479 100.339 79.3457 101.299 78.4766 102.719C77.6681 104.049 77.0415 104.619 75.2526 104.019C65.0451 100.609 54.7769 97.3986 44.5492 94.0684C43.488 93.7184 42.3763 93.1984 41.5476 92.4683C33.3816 85.268 25.256 78.0176 17.1708 70.7272C16.6251 70.2272 16.0692 69.1172 16.2713 68.5471C16.6958 67.3671 17.6256 66.357 18.2623 65.387Z" fill="white"/>
<path d="M110.039 75.2075C106.835 70.1472 103.652 65.127 100.478 60.1067C97.5374 55.4565 94.5762 50.8162 91.7059 46.126C91.1299 45.176 90.7357 44.0359 90.574 42.9358C88.9772 32.1853 87.4612 21.4147 85.8846 10.6642C85.6724 9.23412 86.4708 8.72409 87.5926 8.42408C88.8458 8.09406 90.1091 7.10401 91.2006 8.9141C93.4038 12.5743 95.7687 16.1445 98.0326 19.7747C100.913 24.3649 103.561 29.1051 106.694 33.5054C109.018 36.7655 109.928 40.2757 110.433 44.0959C111.656 53.4464 113.071 62.7669 114.304 72.1173C114.385 72.7474 113.789 73.7374 113.202 74.1074C112.343 74.6675 111.221 74.8275 110.039 75.2075Z" fill="white"/>
<path d="M514.813 204.354C514.813 195.574 514.813 186.803 514.813 178.023C514.813 175.093 514.884 175.023 517.744 175.013C520.594 175.003 523.454 175.053 526.304 174.983C527.789 174.943 528.366 175.483 528.366 176.983C528.335 195.224 528.335 213.454 528.366 231.695C528.366 233.195 527.769 233.726 526.304 233.696C523.302 233.636 520.291 233.586 517.279 233.696C515.298 233.776 514.772 232.965 514.782 231.125C514.853 222.195 514.813 213.264 514.813 204.344V204.354Z" fill="white"/>
<path d="M529.72 155.872C529.7 160.452 526.172 164.022 521.604 164.092C517.279 164.152 513.438 160.282 513.428 155.842C513.418 151.251 517.218 147.441 521.736 147.531C526.243 147.621 529.74 151.281 529.73 155.872H529.72Z" fill="white"/>
<path d="M456.428 75.7074C453.972 68.367 449.111 62.8867 441.713 59.9266C437.003 58.0465 432.071 57.3964 427.008 57.7464C416.063 58.5165 407.846 63.3167 403.248 73.4873C400.529 79.4976 399.993 85.8579 400.58 92.2782C401.105 98.0285 402.904 103.459 406.492 108.149C412.172 115.569 420.055 118.28 429.12 118.31C429.969 118.31 430.818 118.35 431.657 118.31C442.056 117.72 450.142 113.299 454.871 103.909C459.47 94.7883 459.591 85.2278 456.418 75.7074H456.428ZM442.491 98.7585C439.803 104.119 435.043 106.269 429.231 106.239C423.491 106.209 418.943 103.969 416.315 98.6485C414.658 95.3084 413.738 91.8082 414.011 88.328C413.829 82.9277 415.082 78.1975 418.478 74.2473C423.946 67.877 439.206 67.2769 443.461 79.4476C445.745 85.9779 445.634 92.5082 442.491 98.7685V98.7585Z" fill="white"/>
<path d="M596.786 197.784C595.28 188.723 591.056 181.423 582.567 177.073C576.988 174.212 570.934 173.562 564.809 174.122C555.522 174.973 548.002 178.933 543.424 187.303C539.23 194.974 538.502 203.184 540.018 211.674C541.231 218.425 544.192 224.245 549.539 228.685C556.189 234.206 564.173 235.326 572.389 234.486C581.92 233.515 589.429 229.025 593.845 220.275C596.372 215.275 597.352 209.914 597.443 204.334C597.231 202.144 597.13 199.934 596.776 197.764L596.786 197.784ZM581.869 213.975C579.312 220.145 573.996 223.025 567.043 222.555C560.676 222.125 556.067 218.405 554.107 212.204C552.207 206.224 552.439 200.394 554.844 194.574C558.776 185.043 570.611 184.423 576.765 188.403C581.687 191.583 583.092 196.574 583.739 201.924C583.84 202.754 583.749 203.604 583.749 204.444C583.931 204.494 584.123 204.534 584.305 204.584C583.517 207.724 583.092 211.024 581.869 213.985V213.975Z" fill="white"/>
<path d="M711.484 73.5274C708.685 66.917 703.844 62.0968 696.961 59.6467C690.746 57.4366 684.359 57.1065 677.87 58.4666C669.472 60.2267 663.327 64.8369 659.679 72.5473C656.061 80.1977 655.555 88.2181 657.273 96.4086C658.607 102.779 661.488 108.299 666.672 112.489C672.059 116.85 678.376 118.33 685.157 118.39C698.033 118.42 707.573 112.699 711.868 101.789C715.557 92.4083 715.446 82.8479 711.494 73.5274H711.484ZM699.235 96.9986C696.84 103.389 691.827 106.409 684.631 106.269C678.285 106.149 673.363 102.619 671.21 96.2585C669.179 90.2782 669.27 84.2479 671.806 78.3976C674.282 72.6573 678.891 69.9272 685.096 69.8872C691.312 69.8472 696.315 72.1773 698.76 78.1176C700.044 81.2278 700.59 84.6379 701.398 87.6781C700.63 91.1183 700.296 94.1884 699.245 96.9986H699.235Z" fill="white"/>
</svg>
