<svg width="1128" height="133" viewBox="0 0 1128 133" fill="none" xmlns="http://www.w3.org/2000/svg">
<path d="M284.79 0C288.82 0.67 292.89 1.13 296.86 2.04C306.57 4.25 314.81 8.7 319.53 17.99C322.21 23.26 323.24 28.97 323.3 34.81C323.39 43.38 323.31 51.96 323.2 60.53C323.04 72.24 317.72 80.93 307.52 86.69C307.16 86.89 306.81 87.1 306.47 87.32C306.34 87.41 306.23 87.53 305.86 87.86C315.94 102.7 326.05 117.57 336.42 132.84C334.16 132.84 332.39 132.84 330.63 132.84C321.29 132.84 311.95 132.79 302.61 132.88C300.87 132.9 299.83 132.44 298.83 130.94C291.05 119.24 283.2 107.59 275.28 95.98C274.7 95.12 273.45 94.2 272.51 94.19C261.04 94.07 249.57 94.12 238.09 94.13C237.86 94.13 237.62 94.21 237.11 94.29V132.71H205.11V0C231.67 0 258.23 0 284.79 0ZM237.2 25.87V68.51C251.67 68.51 266.01 68.88 280.31 68.36C287.88 68.09 291.82 63.89 292.1 57.33C292.39 50.32 292.33 43.28 292.1 36.27C291.96 31.97 289.92 28.55 285.59 27.09C283.75 26.47 281.76 26.02 279.83 26C267.21 25.88 254.59 25.89 241.97 25.86C240.43 25.86 238.89 25.86 237.19 25.86L237.2 25.87Z" fill="white"/>
<path d="M1075.24 0C1079.27 0.65 1083.35 1.08 1087.32 1.97C1103.66 5.64 1112.08 14.24 1113.65 30.84C1114.67 41.6 1114.17 52.55 1113.7 63.38C1113.25 73.84 1107.53 81.36 1098.55 86.52C1097.99 86.84 1097.44 87.2 1096.56 87.74C1106.71 102.68 1116.81 117.55 1127.19 132.84H1122.36C1112.77 132.84 1103.18 132.79 1093.59 132.88C1091.67 132.9 1090.52 132.36 1089.43 130.71C1081.66 119 1073.79 107.35 1065.87 95.74C1065.34 94.96 1064.13 94.18 1063.23 94.17C1052 94.06 1040.77 94.1 1029.55 94.11C1029.08 94.11 1028.61 94.18 1027.93 94.24V132.67H996.19C996.13 132.11 996 131.49 996 130.87C996 87.49 996 44.11 996 0.73C996 0.49 996.03 0.24 996.04 0C1022.44 0 1048.83 0 1075.23 0L1075.24 0ZM1028.02 68.6C1042.3 68.6 1056.3 68.88 1070.29 68.5C1079.08 68.26 1083.05 63.49 1083.06 54.75C1083.06 49.28 1083.11 43.81 1083.03 38.35C1083.01 36.74 1082.81 35.08 1082.39 33.52C1081.09 28.79 1077.15 26.08 1070.75 26.01C1056.83 25.85 1042.92 25.92 1029 25.9C1028.7 25.9 1028.4 26.03 1028.02 26.12V68.61V68.6Z" fill="white"/>
<path d="M76.72 0C81.13 0.79 85.62 1.31 89.95 2.43C106.47 6.7 115.86 17.72 117.5 34.67C117.95 39.29 118.05 43.95 118.06 48.6C118.11 63.54 118.25 78.48 117.93 93.41C117.74 102.51 115.59 111.21 109.71 118.56C103.12 126.79 93.96 130.25 83.95 131.79C79.44 132.48 74.83 132.78 70.27 132.8C46.85 132.91 23.42 132.86 0 132.87V0C25.57 0 51.15 0 76.72 0ZM32.01 26.96V105.8C45.51 105.8 58.86 106.31 72.16 105.63C81.91 105.13 86.38 100.18 86.59 90.43C86.94 73.95 86.81 57.46 86.51 40.98C86.38 33.58 81.88 28.98 74.54 27.55C72.7 27.19 70.81 26.98 68.94 26.97C57.31 26.89 45.68 26.88 34.05 26.86C33.41 26.86 32.78 26.93 32.02 26.97L32.01 26.96Z" fill="white"/>
<path d="M915.38 0V26H845.08V51.85H910.74V78.28H845.12V106.74H915.34V132.68H813.22C813.16 132.11 813.03 131.49 813.03 130.88C813.03 87.42 813.03 43.95 813.03 0.49C813.03 0.33 813.05 0.16 813.07 0C847.17 0 881.28 0 915.38 0Z" fill="white"/>
<path d="M696.98 0C701.41 0.75 705.9 1.22 710.24 2.3C726.23 6.28 734.4 15.59 735.31 31.95C735.92 42.85 735.85 53.84 735.18 64.74C734.31 78.84 725.47 88.81 710.77 92.5C704.09 94.17 697.06 94.95 690.16 95.19C678.21 95.61 666.23 95.31 654.27 95.31H651.22V132.7H619.27V0C645.17 0 671.08 0 696.98 0ZM651.36 26.03V69.74C653.21 69.74 654.91 69.74 656.61 69.74C667.91 69.71 679.22 69.88 690.52 69.59C698.89 69.37 703.99 65.99 704.07 56.68C704.13 49.83 704.13 42.97 703.85 36.12C703.66 31.49 701 28.37 696.55 27.01C694.62 26.42 692.54 26.02 690.53 26C677.83 25.89 665.14 25.9 652.44 25.88C652.13 25.88 651.81 25.96 651.36 26.02V26.03Z" fill="white"/>
<path d="M496.3 0C499.75 9.14 503.15 18.31 506.66 27.43C519.82 61.68 533.02 95.91 546.19 130.15C546.47 130.89 546.66 131.67 546.98 132.7C542.74 132.7 538.75 132.7 534.76 132.7C529.19 132.7 523.61 132.63 518.04 132.74C516.28 132.78 515.49 132.22 514.87 130.56C503.5 100 492.07 69.46 480.64 38.91C479.4 35.59 478.12 32.28 476.25 28.99C475.55 30.76 474.81 32.52 474.15 34.3C462.18 66.29 450.21 98.28 438.31 130.3C437.63 132.13 436.81 132.77 434.82 132.74C426.13 132.62 417.44 132.69 408.76 132.69H405.96C423.04 88.23 439.99 44.12 456.95 0C470.07 0 483.18 0 496.3 0Z" fill="white"/>
</svg>
