<svg width="1128" height="162" viewBox="0 0 1128 162" fill="none" xmlns="http://www.w3.org/2000/svg">
<path d="M794.21 161C792.06 160.14 789.74 160.27 787.51 159.92C779.93 158.75 772.49 157.04 765.27 154.45C762.86 153.58 762.56 152.98 763.11 150.55C763.68 148.07 764.23 145.59 764.85 143.12C765.52 140.43 766.39 139.98 769.01 140.89C778.89 144.31 789.04 146.38 799.49 146.8C806.04 147.06 812.54 146.74 818.87 144.69C831.75 140.51 833.12 129.29 829.96 120.14C828.47 115.81 824.9 113.53 820.71 112.13C815.6 110.42 810.24 110 804.96 109.21C797.34 108.07 789.65 107.3 782.39 104.43C770.19 99.62 764.02 90.52 763.93 77.45C763.88 69.01 765.83 61.32 771.86 55.08C776.87 49.89 783.22 47.16 790.1 45.5C799.73 43.18 809.48 43.33 819.25 44.16C826.64 44.78 833.94 45.97 841.13 47.78C844.23 48.56 844.5 49.01 844 52.19C843.63 54.52 843.31 56.86 842.92 59.18C842.45 61.96 841.86 62.35 839.02 61.84C834.55 61.05 830.1 60.14 825.61 59.46C815.79 57.99 805.95 57.09 796.11 59.3C792.06 60.21 788.35 61.81 785.19 64.66C779.37 69.9 778.29 83.62 788.7 88.78C793.52 91.17 798.71 92.06 803.95 92.83C812.07 94.02 820.29 94.59 828.21 96.93C835.31 99.02 841.33 102.6 844.94 109.37C846.84 112.93 847.84 116.77 848.2 120.75C848.85 128.05 848.62 135.28 845.52 142.12C842.04 149.78 835.92 154.45 828.21 157.3C823.1 159.19 817.77 160.09 812.37 160.64C811.91 160.69 811.35 160.44 811.04 161.03H794.23L794.21 161Z" fill="white"/>
<path d="M0.31 70.13H0.15L0 70.0801V48.84C0.11 48.82 0.22 48.81 0.33 48.8C1.25 49.21 1.24 50.0701 1.25 50.8601C1.34 56.6 1.34 62.3401 1.25 68.0801C1.24 68.8601 1.25 69.7301 0.32 70.1201L0.31 70.13Z" fill="white"/>
<path d="M298.86 107.35C298.86 92.1401 298.93 76.9201 298.82 61.7101C298.79 56.8801 300.88 53.6801 305.18 51.7501C310.62 49.3101 316.44 48.2201 322.25 47.1901C335.38 44.8701 348.6 43.2901 361.96 43.7101C370.57 43.9801 378.89 45.6501 386.42 50.1201C387.26 50.6201 387.93 50.3801 388.7 50.1301C400.44 46.4501 412.43 44.0601 424.76 43.6701C432.54 43.4201 440.32 43.7101 447.97 45.3601C464.56 48.9201 472.52 58.5101 472.6 75.4801C472.72 101.87 472.63 128.26 472.63 154.65C472.63 157.15 471.65 158.18 469.12 158.19C459.1 158.22 449.08 158.22 439.05 158.19C436.37 158.19 435.53 157.19 435.52 154.31C435.52 131.02 435.52 107.74 435.5 84.4501C435.5 82.5901 435.39 80.7201 435.18 78.8801C434.44 72.4201 430.5 68.4701 424 67.9101C417.81 67.3801 411.72 68.3901 405.64 69.4501C404.81 69.5901 404.47 70.0101 404.56 70.8401C404.61 71.3301 404.56 71.8301 404.56 72.3301C404.56 99.4701 404.56 126.6 404.56 153.74C404.56 157.29 403.69 158.19 400.19 158.2C390.54 158.21 380.89 158.21 371.24 158.2C368.06 158.2 367.14 157.26 367.14 154.07C367.14 130.23 367.14 106.38 367.14 82.5401C367.14 80.6701 367 78.8101 366.59 76.9901C365.28 71.1401 361.73 68.1301 355.75 67.8401C349.56 67.5401 343.47 68.5201 337.38 69.4201C336.53 69.5501 336.01 69.9001 336.12 70.8801C336.18 71.4301 336.12 72.0001 336.12 72.5601C336.12 99.5101 336.12 126.46 336.12 153.41C336.12 157.46 335.37 158.21 331.34 158.21C321.94 158.21 312.54 158.21 303.14 158.21C299.7 158.21 298.82 157.33 298.82 153.92C298.82 138.4 298.82 122.87 298.82 107.35H298.86Z" fill="white"/>
<path d="M0.309998 70.13C0.309998 63.02 0.319998 55.91 0.329998 48.81C0.919998 46.83 2.47 46.42 4.28 46.42C8.95 46.42 13.62 46.36 18.29 46.45C19.85 46.48 20.27 46 20.28 44.45C20.32 37.94 19.86 31.41 20.84 24.93C23.09 10.03 31.86 1.12004 46.92 -1.03996C60 -2.90996 72.99 -1.99996 85.81 1.17004C89.77 2.15004 90.23 2.92004 89.68 6.92004C88.98 11.96 88.2 16.99 87.47 22.02C87.01 25.15 86.13 25.8 82.96 25.24C78.3 24.42 73.61 23.82 68.86 23.93C67.18 23.97 65.51 24.14 63.87 24.56C60.1 25.54 58.27 27.59 57.92 31.48C57.5 36 57.83 40.54 57.73 45.07C57.7 46.55 58.68 46.4 59.62 46.4C67.03 46.4 74.44 46.4 81.84 46.4C82.46 46.4 83.09 46.38 83.71 46.43C85.78 46.6 86.95 47.68 86.96 49.77C87.02 56.29 87.01 62.81 86.96 69.33C86.95 71.13 85.93 72.25 84.08 72.36C82.03 72.47 79.98 72.49 77.93 72.5C71.95 72.52 65.98 72.57 60 72.47C58.2 72.44 57.7 72.98 57.7 74.77C57.75 100.54 57.74 126.31 57.74 152.08C57.74 152.7 57.74 153.32 57.74 153.94C57.71 157.16 56.7 158.2 53.5 158.21C46.53 158.23 39.56 158.21 32.58 158.21C29.84 158.21 27.1 158.23 24.36 158.21C21.3 158.18 20.25 157.11 20.25 154.01C20.25 127.74 20.25 101.47 20.25 75.21C20.25 72.34 20.65 72.53 17.54 72.52C13.24 72.51 8.95 72.56 4.65 72.49C2.85 72.46 0.919998 72.46 0.329998 70.13H0.309998Z" fill="white"/>
<path d="M219.46 107.35C219.46 92.26 219.57 77.17 219.4 62.09C219.34 56.74 221.66 53.39 226.45 51.46C233.31 48.7 240.54 47.42 247.8 46.31C258.46 44.69 269.18 43.9 279.97 44.05C283.98 44.11 285.33 45.41 285.34 49.45C285.35 54.91 285.34 60.38 285.34 65.84C285.34 70.04 284.47 70.98 280.18 71C273.14 71.05 266.14 71.5 259.14 72.24C257.11 72.45 256.65 73.18 256.66 75.11C256.72 101.25 256.7 127.39 256.7 153.53C256.7 157.5 255.99 158.21 252.04 158.21C242.77 158.21 233.49 158.21 224.22 158.21C220.31 158.21 219.47 157.39 219.47 153.54C219.47 138.14 219.47 122.74 219.47 107.34L219.46 107.35Z" fill="white"/>
<path d="M511.48 69.71C511.48 92.13 511.48 114.55 511.48 136.96C511.48 138.21 511.54 139.44 511.8 140.66C512.51 143.98 514.84 146.03 518.47 146.46C521.71 146.85 524.93 146.6 528.11 145.88C530.38 145.37 530.82 145.64 531.31 147.92C531.77 150.04 532.25 152.16 532.66 154.29C533.11 156.6 532.83 157.23 530.66 158C523.15 160.65 515.44 161.29 507.72 159.27C500.03 157.26 496.25 151.67 495 144.12C494.61 141.78 494.57 139.42 494.57 137.07C494.57 93.3501 494.57 49.6301 494.57 5.92005C494.57 2.13005 494.93 1.66005 498.66 0.68005C501.67 -0.10995 504.67 -0.899951 507.68 -1.66995C510.53 -2.39995 511.49 -1.58995 511.49 1.53005C511.49 24.26 511.49 46.99 511.49 69.71H511.48Z" fill="white"/>
<path d="M1118.92 10.9201C1114.6 8.23006 1110.02 5.95006 1105.62 3.38006C1099.62 -0.119941 1093.77 -0.0299413 1087.81 3.57006C1062 19.1601 1036.14 34.6701 1010.34 50.2801C1008.19 51.5801 1006.49 51.5801 1004.34 50.2901C978.4 34.6701 952.4 19.1501 926.45 3.55006C920.8 0.160058 915.23 -0.0299416 909.51 3.23006C904.81 5.91006 900.08 8.53006 895.39 11.2101C893.06 12.5401 891.23 14.4001 890.04 16.7901C886.79 23.3401 887.46 29.5101 891.59 35.5701C906 56.7201 920.28 77.9601 934.65 99.1401C935.5 100.4 935.47 101.01 934.13 101.87C930.57 104.15 927.09 106.56 923.65 109.01C920.56 111.2 918.41 114.01 918.63 118.03C918.81 121.35 920.62 123.84 923.1 125.89C932.35 133.54 941.54 141.26 950.88 148.78C956.16 153.03 960.81 158.17 967.17 161H970.53C973.15 160.02 975.68 158.93 977.23 156.38C978.18 154.82 978.65 153.09 979.23 151.38C987.68 126.54 996.13 101.7 1004.6 76.8601C1005.43 74.4201 1006.32 72.0001 1007.37 69.0501C1008.29 71.6701 1009.03 73.7601 1009.75 75.8601C1018.49 101.52 1027.21 127.19 1035.97 152.84C1038.7 160.84 1046.88 163.13 1053.28 157.65C1065.93 146.8 1078.87 136.3 1091.71 125.69C1097.78 120.67 1097.7 113.98 1091.42 109.23C1088.35 106.91 1085.11 104.8 1081.94 102.62C1079.88 101.21 1079.87 101.23 1081.25 99.1401C1092.16 82.5301 1103.1 65.9301 1113.96 49.2901C1117.52 43.8301 1121.67 38.7501 1124.69 32.9401C1125.8 30.8001 1127.15 28.6501 1127.21 26.1901C1127.38 19.5701 1124.5 14.4101 1118.92 10.9301V10.9201ZM916.79 12.0201C918.19 11.2601 919.69 11.5601 921.06 12.3801C935.88 21.2601 950.7 30.1401 965.52 39.0301C965.87 39.2401 966.35 39.3501 966.39 40.1401C944.72 33.7301 923.14 27.3401 901.03 20.8001C906.59 17.6901 911.66 14.8001 916.78 12.0201H916.79ZM983.19 108.93C978.82 121.85 974.41 134.75 970.09 147.69C969.55 149.3 969.13 149.37 967.85 148.31C956 138.46 944.12 128.65 932.21 118.88C931.02 117.9 930.96 117.44 932.29 116.59C935.22 114.71 938.08 112.73 940.91 110.71C942.03 109.91 942.67 109.8 943.51 111.14C945.46 114.24 947.57 117.24 949.66 120.24C954.43 127.07 962.21 127.15 967.12 120.37C974 110.87 980.82 101.32 987.67 91.7901C988.14 91.1401 988.51 90.4101 989.63 89.8201C987.42 96.4001 985.31 102.67 983.19 108.94V108.93ZM952.25 102.96C961.14 96.9301 970 90.8601 979.04 84.6901C979.15 85.6701 978.63 86.0101 978.32 86.4401C972.07 95.1801 965.78 103.88 959.58 112.65C958.65 113.96 958.25 113.84 957.45 112.6C955.74 109.94 953.91 107.35 952.11 104.75C951.65 104.09 951.3 103.61 952.25 102.96ZM981.61 69.9301C969.96 77.8801 958.29 85.8201 946.67 93.8101C945.56 94.5801 945.12 94.4201 944.4 93.3601C931.12 73.6401 917.79 53.9401 904.48 34.2401C904.24 33.8901 903.88 33.5901 904.02 32.8401C934.57 41.8401 965.1 50.8301 996.15 59.9801C991.03 63.4801 986.32 66.7001 981.6 69.9201L981.61 69.9301ZM1109.27 38.2301C1097.15 56.7901 1085.01 75.3501 1072.92 93.9301C1072.12 95.1601 1071.62 95.4701 1070.25 94.5501C1053.94 83.4901 1037.58 72.5101 1021.23 61.5001C1020.67 61.1201 1020.14 60.7201 1019.25 60.0801C1050.55 50.9101 1081.41 41.8701 1112.85 32.6601C1111.45 34.8401 1110.36 36.5501 1109.26 38.2301H1109.27Z" fill="white"/>
<path d="M202.09 76.83C198.55 61.11 189.2 50.74 173.5 46.63C157.18 42.36 140.72 42.36 124.39 46.58C109.08 50.54 99.67 60.47 96 75.83C94.45 82.32 93.83 88.92 93.63 95.57C93.3 106.26 93.39 116.93 95.65 127.44C97.98 138.31 103.03 147.42 112.89 153.32C118.97 156.96 125.64 158.82 132.58 159.88C135.32 160.3 138.08 160.63 140.83 161H157.64C158.03 160.4 158.65 160.66 159.17 160.61C164.07 160.13 168.91 159.37 173.66 158.04C188.63 153.83 198.06 144.29 201.78 129.16C203.48 122.24 204.14 115.21 204.28 108.13C204.49 97.63 204.4 87.15 202.07 76.82L202.09 76.83ZM166.24 102.37C166.16 109.62 166.52 116.91 165.13 124.09C164.21 128.84 162.48 133.18 157.51 135C151.71 137.12 145.79 137.08 139.98 134.9C136.82 133.71 134.92 131.19 133.74 128.11C132.14 123.93 131.71 119.52 131.6 115.13C131.35 105.33 131.12 95.51 131.88 85.72C132.12 82.69 132.6 79.69 133.65 76.8C135.25 72.4 138.31 69.7 142.9 68.78C147.1 67.93 151.31 67.94 155.49 68.94C159.69 69.94 162.52 72.5 164 76.54C165.98 81.94 166.03 87.61 166.22 93.25C166.32 96.29 166.24 99.33 166.24 102.38V102.37Z" fill="white"/>
<path d="M751.27 94.16C750.97 85.58 750.12 77.08 747.53 68.83C743.45 55.83 734.84 47.83 721.39 45.07C712.19 43.18 702.97 43.29 693.73 44.54C686.33 45.54 679.03 47.06 671.82 49.01C670.62 49.33 670.09 49.29 670.28 47.83C671.42 39.31 671.27 30.74 671.24 22.17C671.22 15.22 671.26 8.25998 671.22 1.30998C671.21 -1.61002 670.14 -2.41002 667.4 -1.70002C664.15 -0.870023 660.9 -0.0300227 657.65 0.819977C654.5 1.64998 654.17 2.07998 654.17 5.30998C654.17 31.14 654.17 56.97 654.17 82.81C654.17 101.87 654.15 120.94 654.17 140C654.18 149.81 657.07 153.64 666.45 156.48C666.69 156.55 666.93 156.61 667.17 156.68C672.63 158.23 678.2 159.16 683.81 159.93C686.48 160.3 689.23 160.12 691.84 161H709.77C710.03 160.5 710.52 160.68 710.93 160.62C713.51 160.24 716.12 159.99 718.68 159.48C728.76 157.49 737.35 153.1 743.03 144.15C746.72 138.33 748.61 131.86 749.75 125.15C751.49 114.88 751.63 104.53 751.26 94.15L751.27 94.16ZM732.56 121.38C732.08 124.39 731.36 127.33 730.37 130.22C727.04 139.95 720.16 145.44 710.07 146.81C697.45 148.52 685.01 147.08 672.69 144.18C671.3 143.85 671.23 143.02 671.23 141.88C671.25 128.97 671.25 116.05 671.25 103.14C671.25 90.23 671.29 77.56 671.2 64.77C671.19 63.05 671.74 62.44 673.35 62.07C683.85 59.67 694.37 57.43 705.23 57.61C708.59 57.67 711.92 58 715.21 58.77C722.82 60.55 727.77 65.18 730.39 72.47C732.55 78.51 733.27 84.79 733.56 91.12C734.02 101.23 734.17 111.34 732.57 121.39L732.56 121.38Z" fill="white"/>
<path d="M634.13 71.75C634.13 70.01 634.02 68.28 633.89 66.54C633.19 57.43 628.68 51.11 620.09 47.73C614.29 45.44 608.24 44.48 602.08 44C589.73 43.03 577.47 43.9 565.27 45.89C559.31 46.86 553.41 48.1 547.69 50.05C545.27 50.87 544.79 51.79 545.29 54.25C545.69 56.26 546.1 58.26 546.49 60.27C547.42 65.04 547.56 65.14 552.38 63.91C565.85 60.46 579.43 57.72 593.44 58.22C598.98 58.42 604.5 58.77 609.74 60.88C614.12 62.64 616.39 65.86 616.8 70.51C617.21 75.1 617 79.69 617.11 84.28C617.14 85.53 616.58 85.87 615.52 86.04C602.32 88.17 589.13 90.31 575.94 92.48C569.2 93.59 562.41 94.47 555.93 96.84C548 99.74 543.02 105.25 541.08 113.43C539.5 120.09 539.33 126.84 540.35 133.59C541.66 142.22 545.57 149.32 553.1 154.12C558.17 157.35 563.83 158.92 569.71 159.93C572.07 160.33 574.51 160.17 576.8 161.01H595.85C597.88 160.38 600 160.55 602.08 160.29C609.68 159.34 617.21 158.09 624.46 155.49C629.82 153.57 632.94 149.88 633.68 144.18C633.96 142.02 634.14 139.86 634.14 137.69C634.15 115.71 634.15 93.73 634.14 71.75H634.13ZM615.77 143.94C602.11 147.86 588.24 148.98 574.24 146.42C563.23 144.41 557.42 136.99 557.35 125.82C557.33 123.33 557.48 120.87 558.05 118.43C559.2 113.5 562.13 110.16 566.89 108.44C571.95 106.6 577.3 106.07 582.56 105.15C593.28 103.28 604.01 101.53 614.74 99.71C617.2 99.29 617.2 99.27 617.2 101.76C617.2 108.34 617.2 114.92 617.2 121.5C617.2 128.27 617.18 135.03 617.22 141.8C617.22 142.93 617.02 143.58 615.78 143.94H615.77Z" fill="white"/>
</svg>
