<svg width="1127" height="164" viewBox="0 0 1127 164" fill="none" xmlns="http://www.w3.org/2000/svg">
<path d="M112.143 107.364C112.143 124.13 106.797 137.76 96.0865 148.252C85.3852 158.754 72.0411 164 56.0627 164C40.0844 164 26.7403 158.754 16.039 148.252C5.35499 137.76 0 124.13 0 107.364V1.34827H29.7471V106.236C29.7471 115.445 32.1039 122.7 36.8091 127.983C41.5142 133.275 47.935 135.907 56.0714 135.907C64.2079 135.907 70.6547 133.265 75.4378 127.983C80.2122 122.7 82.6037 115.445 82.6037 106.236V1.34827H112.143V107.364Z" fill="white"/>
<path d="M254.249 162.643H227.708L167.356 63.6519V162.643H137.609V1.34827H164.15L224.502 100.119V1.34827H254.249V162.633V162.643Z" fill="white"/>
<path d="M311.828 162.643H282.081V1.34827H311.828V162.633V162.643Z" fill="white"/>
<path d="M456.283 162.643H429.742L369.39 63.6519V162.643H339.643V1.34827H366.184L426.536 100.119V1.34827H456.283V162.633V162.643Z" fill="white"/>
<path d="M601.812 162.643H570.783L561.797 134.1H507.649L498.447 162.643H467.418L522.839 1.34827H546.165L601.812 162.633V162.643ZM553.869 107.594L535.248 48.9221L515.985 107.594H553.869Z" fill="white"/>
<path d="M722.724 107.364C722.724 124.13 717.378 137.76 706.668 148.252C695.967 158.754 682.623 164 666.644 164C650.666 164 637.322 158.754 626.62 148.252C615.919 137.76 610.564 124.13 610.564 107.364V1.34827H640.311V106.236C640.311 115.445 642.668 122.7 647.373 127.983C652.078 133.275 658.499 135.907 666.636 135.907C674.772 135.907 681.219 133.265 686.002 127.983C690.776 122.7 693.168 115.445 693.168 106.236V1.34827H722.707V107.364H722.724Z" fill="white"/>
<path d="M846.21 29.4413H806.402V162.643H776.655V29.4413H736.848V1.34827H846.21V29.4413Z" fill="white"/>
<path d="M1003.51 162.643H904.638V1.34827H934.385V134.55H1003.51V162.643Z" fill="white"/>
<path d="M1127 113.033C1124.44 129.496 1117.94 142.18 1107.52 151.086C1097.68 159.698 1085.48 164 1070.93 164C1054.66 164 1040.96 158.112 1029.84 146.335C1022.99 139.08 1018.57 129.799 1016.57 118.471C1015.43 111.831 1014.86 99.6694 1014.86 82.0046C1014.86 64.3398 1015.43 52.1781 1016.57 45.5377C1018.57 34.2106 1022.99 24.9196 1029.84 17.674C1040.96 5.89743 1054.66 0 1070.93 0C1085.62 0 1098 4.38409 1108.06 13.1431C1118.12 21.9021 1124.44 34.5133 1127 50.9766H1096.83C1093.26 35.724 1084.7 28.1022 1071.15 28.1022C1062.16 28.1022 1055.24 31.6517 1050.38 38.7506C1046.53 44.4921 1044.6 58.9101 1044.6 82.0137C1044.6 94.5515 1044.74 102.403 1045.04 105.576C1046.03 115.692 1048.39 123.021 1052.1 127.551C1056.8 133.137 1063.16 135.934 1071.15 135.934C1084.7 135.934 1093.26 128.313 1096.83 113.06H1127V113.033Z" fill="white"/>
</svg>
